<svg width="96" height="96" viewBox="0 0 96 96" fill="none" xmlns="http://www.w3.org/2000/svg">
<circle cx="48" cy="48" r="48" fill="white"/>
<path d="M62.6427 95.1219L62.6234 95.102L62.6019 95.0843C62.0244 94.6089 61.626 93.9427 61.626 93.3517V86.069C61.626 81.4039 59.3589 77.1468 55.4948 74.5376C54.7202 73.9644 54.3361 73.0985 54.5341 72.2836C54.7426 71.4254 55.4742 70.7842 56.2935 70.676C63.1219 69.9833 68.3177 64.0637 68.3177 56.9379V52.5683C68.3177 47.629 65.6536 42.9564 61.5004 40.6128L61.492 40.6081L61.4834 40.6037C61.1154 40.4143 60.7956 40.0094 60.5594 39.5325L58.8968 34.6633L58.4699 33.4132L57.962 34.6326L56.8038 37.4133C56.4884 38.1707 55.759 38.6945 54.9491 38.6945H41.0509C40.241 38.6945 39.5116 38.1707 39.1961 37.4133L38.038 34.6326L37.5431 33.4445L37.1061 34.6551L35.4425 39.2639C35.2061 39.7424 34.8855 40.149 34.5166 40.3388L34.5056 40.3445L34.4948 40.3507C30.2176 42.8263 27.6823 47.3638 27.6823 52.3035V56.6731C27.6823 63.809 32.887 69.5844 39.7016 70.4106C40.5229 70.5168 41.257 71.1588 41.4659 72.0187C41.6807 72.9031 41.3469 73.8344 40.5648 74.2368L40.5386 74.2503L40.5141 74.2668C36.6446 76.8754 34.374 81.1355 34.374 85.8041V93.0869C34.374 93.8759 34.0528 94.4699 33.4871 94.7609L33.4394 94.7854L33.398 94.8195C32.8987 95.2305 32.2115 95.3259 31.6282 95.0257L31.5992 95.0108L31.5686 94.9998C12.9909 88.3224 0.5 69.8491 0.5 49.3903C0.5 22.3757 21.7801 0.5 48 0.5C74.2199 0.5 95.5 22.3757 95.5 49.3903C95.5 69.8194 83.0435 88.2768 64.3692 95.3718C64.2151 95.384 64.0749 95.4202 63.9784 95.4451L63.9612 95.4496C63.8204 95.4858 63.7541 95.5 63.6997 95.5C63.2657 95.5 62.9025 95.3892 62.6427 95.1219Z" fill="#FFA8EC" fill-opacity="0.35" stroke="black"/>
<path d="M62.6427 95.1219L62.6234 95.102L62.6019 95.0843C62.0244 94.6089 61.626 93.9427 61.626 93.3517V86.069C61.626 81.4039 59.3589 77.1468 55.4949 74.5377C54.7202 73.9645 54.3361 73.0985 54.5341 72.2836C54.7426 71.4255 55.474 70.7843 56.2933 70.6761C63.1218 69.9834 68.3177 64.0638 68.3177 56.9379V52.5683C68.3177 47.629 65.6536 42.9564 61.5004 40.6128L61.492 40.6081L61.4834 40.6037C61.1154 40.4143 60.7956 40.0094 60.5594 39.5325L58.8968 34.6633L58.4699 33.4132L57.962 34.6326L56.8038 37.4133C56.4884 38.1707 55.759 38.6945 54.9491 38.6945H41.0509C40.241 38.6945 39.5116 38.1707 39.1961 37.4133L38.038 34.6326L37.5431 33.4445L37.1061 34.6551L35.4424 39.2639C35.2061 39.7424 34.8855 40.149 34.5166 40.3388L34.5056 40.3445L34.4948 40.3507C30.2176 42.8263 27.6823 47.3638 27.6823 52.3034V56.6731C27.6823 63.8093 32.8875 69.5849 39.7025 70.4107C40.5235 70.5172 41.257 71.1592 41.4659 72.0187C41.6807 72.9031 41.3469 73.8344 40.5648 74.2368L40.5386 74.2503L40.5141 74.2668C36.6446 76.8754 34.374 81.1355 34.374 85.8041V93.0869C34.374 93.8759 34.0528 94.4699 33.4871 94.7609L33.4394 94.7854L33.398 94.8195C32.8987 95.2305 32.2115 95.3259 31.6282 95.0257L31.5992 95.0108L31.5686 94.9998C12.9909 88.3224 0.5 69.8491 0.5 49.3903C0.5 22.3757 21.7801 0.5 48 0.5C74.2199 0.5 95.5 22.3757 95.5 49.3903C95.5 69.8194 83.0435 88.2768 64.3693 95.3718C64.2152 95.3839 64.075 95.4202 63.9784 95.4451L63.9612 95.4496C63.8204 95.4858 63.7541 95.5 63.6997 95.5C63.2657 95.5 62.9025 95.3892 62.6427 95.1219ZM29.636 89.8287L30.3552 90.1796V89.3793V86.069C30.3552 81.6816 31.86 77.5562 34.4892 74.3355L34.9108 73.819L34.2969 73.5589C27.9216 70.8577 23.5349 64.4202 23.5349 56.9379V52.5683C23.5349 46.3771 26.6701 40.5794 31.6699 37.364L31.8109 37.2733L31.8687 37.116L35.472 27.3174L35.4725 27.316C35.7942 26.4331 36.5212 25.9234 37.319 25.9234C38.1572 25.9234 38.9978 26.4736 39.3023 27.2042C39.3024 27.2044 39.3024 27.2045 39.3025 27.2047L42.2619 34.354L42.3897 34.6628H42.7239H53.2761H53.6103L53.7381 34.354L56.6975 27.2047C56.6975 27.2045 56.6976 27.2044 56.6977 27.2042C57.0022 26.4736 57.8428 25.9234 58.681 25.9234C59.4788 25.9234 60.2058 26.4331 60.5275 27.316L60.528 27.3174L64.1313 37.116L64.1885 37.2716L64.3273 37.3622C69.4566 40.7092 72.4651 46.3749 72.4651 52.7007V57.0703C72.4651 64.5526 68.0784 70.9901 61.7031 73.6913L61.0892 73.9514L61.5108 74.4679C64.14 77.6886 65.6448 81.8141 65.6448 86.2014V89.5117V90.3184L66.3672 89.9595C81.4654 82.4596 91.3525 66.6609 91.3525 49.3903C91.3525 24.7636 71.9678 4.79655 48 4.79655C24.0312 4.79655 4.64745 24.897 4.64745 49.3903C4.64745 66.6602 14.5342 82.461 29.636 89.8287Z" fill="#FFA8EC" stroke="black"/>
<path d="M47.4156 64.4153L47.8671 65.1565L48.2818 64.394C49.3073 62.5087 51.2965 61.2102 53.6479 61.1814C57.1548 61.1384 60.0881 63.9616 60.2038 67.4418C60.2128 67.8038 60.1076 68.277 59.8754 68.8564C59.6452 69.4309 59.3033 70.0778 58.8727 70.7763C58.0114 72.1732 56.8199 73.737 55.5329 75.2808C52.9665 78.359 50.0587 81.312 48.7404 82.6262C48.4866 82.8506 48.1709 82.8381 47.9726 82.6472L47.9727 82.6471L47.9652 82.6402C46.5977 81.3763 43.5872 78.5564 40.8816 75.5657C39.5281 74.0695 38.2602 72.5407 37.314 71.1496C36.3528 69.7365 35.779 68.5433 35.7107 67.7003C35.4502 64.2704 38.3499 61.3688 41.8743 61.3256C44.1751 61.2975 46.2628 62.5229 47.4156 64.4153Z" fill="#FF0000" stroke="black"/>
<path d="M36.0206 75.6001L36.0251 75.5996L36.8324 75.5088C37.7104 76.5727 38.7674 77.7688 40.0521 79.1124C37.7496 80.2531 34.8197 81.5837 32.0966 82.4422C30.6111 82.9106 29.2087 83.2314 28.015 83.3114C26.8082 83.3922 25.8978 83.2209 25.3164 82.7994C24.3604 82.0984 23.5603 80.6947 22.9863 78.83C22.4179 76.9833 22.0952 74.7628 22.036 72.5287C21.9768 70.2945 22.1817 68.07 22.6535 66.2155C23.1305 64.3411 23.8583 62.9299 24.7775 62.2172L24.7807 62.2146C25.1277 61.941 25.6247 61.7591 26.2773 61.6806C26.9279 61.6024 27.701 61.631 28.5651 61.7499C30.127 61.9649 31.9301 62.4669 33.7413 63.0974C32.9265 64.5376 32.5721 66.1769 32.6896 67.8698C32.6951 68.0567 32.7192 68.3112 32.781 68.6328C32.2733 69.0391 32.0737 69.7477 32.3257 70.3839L32.3358 70.4094L32.3486 70.4336C32.4122 70.5537 32.5265 70.7449 32.6681 70.8813C32.9724 71.1742 33.4094 71.3392 33.851 71.2988C34.138 71.7949 34.49 72.3519 34.9147 72.9776C34.5379 73.279 34.3004 73.7561 34.3707 74.3146L34.3707 74.3146L34.3714 74.32C34.4174 74.6556 34.5457 74.953 34.8053 75.2029C35.1524 75.537 35.6068 75.6429 36.0206 75.6001Z" fill="#C7B9B9" stroke="black"/>
<path d="M70.7284 61.654L70.7284 61.654L70.7326 61.657C71.6935 62.3508 72.4966 63.75 73.0706 65.6132C73.6388 67.4576 73.9582 69.6776 74.0107 71.9113C74.0633 74.1452 73.8484 76.3691 73.3636 78.2214C72.8737 80.0932 72.1304 81.5006 71.1931 82.2079L71.193 82.2077L71.1832 82.2155C70.6435 82.6445 69.7566 82.8408 68.5479 82.7914C67.3552 82.7428 65.9375 82.4589 64.4266 82.0287C61.6531 81.2391 58.6394 79.9786 56.2662 78.884C57.3359 77.6938 58.3586 76.4408 59.2897 75.2038L60.2585 75.276C61.0603 75.3443 61.7934 74.7706 61.8552 73.9375C61.8979 73.3621 61.6104 72.8224 61.1384 72.5374C61.4773 71.9917 61.7761 71.4646 62.0411 70.9493C62.7111 71.0605 63.4484 70.7451 63.6974 70.0153C63.9238 69.3519 63.6879 68.5488 63.0334 68.1896C63.0797 67.9124 63.1001 67.6408 63.0937 67.3912C63.0508 65.7237 62.5627 64.1533 61.7347 62.7785C63.5258 62.0909 65.3151 61.5328 66.8777 61.2735C68.6397 60.981 69.969 61.0937 70.7284 61.654Z" fill="#C7B9B9" stroke="black"/>
</svg>
