<svg width="32" height="32" viewBox="0 0 32 32" fill="none" xmlns="http://www.w3.org/2000/svg">
<circle cx="16" cy="16" r="16" fill="white"/>
<path d="M21.12 31.475L21.1006 31.4551L21.0792 31.4374C20.9306 31.3151 20.8753 31.1786 20.8753 31.1172V28.6897C20.8753 27.0263 20.067 25.506 18.6914 24.5741C18.5179 24.4432 18.4752 24.2832 18.5019 24.1732C18.5389 24.021 18.6703 23.9092 18.8041 23.8897C21.2565 23.6378 23.1059 21.5143 23.1059 18.9793V17.5228C23.1059 15.7614 22.1577 14.0902 20.6639 13.2473L20.6555 13.2426L20.647 13.2382C20.6172 13.2229 20.5561 13.1661 20.4944 13.0477L19.9477 11.4467L19.5209 10.1966L19.013 11.416L18.6269 12.3429C18.5688 12.4824 18.44 12.5648 18.3164 12.5648H13.6836C13.56 12.5648 13.4312 12.4824 13.3731 12.3429L12.987 11.416L12.4922 10.2279L12.0552 11.4385L11.5074 12.9559C11.4451 13.0767 11.3831 13.1344 11.353 13.1499L11.342 13.1555L11.3313 13.1617C9.79936 14.0484 8.8941 15.6727 8.8941 17.4345V18.891C8.8941 21.4367 10.7532 23.5046 13.1926 23.801C13.3275 23.8191 13.4608 23.9314 13.498 24.0849C13.5413 24.2631 13.4649 24.3999 13.3691 24.4492L13.3428 24.4627L13.3184 24.4792C11.9368 25.4106 11.1247 26.9341 11.1247 28.6014V31.029C11.1247 31.2001 11.0608 31.2643 11.0099 31.2906L10.9622 31.3151L10.9208 31.3491C10.8505 31.4071 10.7638 31.4141 10.6952 31.3788L10.6663 31.3639L10.6356 31.3529C4.58343 29.1776 0.5 23.1511 0.5 16.4634C0.5 7.63362 7.45304 0.5 16 0.5C24.547 0.5 31.5 7.63362 31.5 16.4634C31.5 23.1255 27.4461 29.1393 21.3768 31.4642C21.3603 31.4665 21.3451 31.4692 21.3316 31.4718C21.2947 31.4789 21.2602 31.4878 21.2407 31.4928L21.2374 31.4937C21.2264 31.4965 21.2191 31.4984 21.214 31.4996C21.1804 31.4982 21.1575 31.4933 21.1434 31.4884C21.1294 31.4836 21.124 31.4791 21.12 31.475ZM9.73251 30.2425L10.4517 30.5934V29.7931V28.6897C10.4517 27.3037 10.927 26.0031 11.7546 24.9893L12.1762 24.4728L11.5624 24.2127C9.56231 23.3653 8.17828 21.3416 8.17828 18.9793V17.5228C8.17828 15.5688 9.16872 13.7435 10.7369 12.735L10.8779 12.6444L10.9358 12.487L12.1368 9.22084L12.1373 9.21948C12.2017 9.04279 12.3282 8.97448 12.4397 8.97448C12.5914 8.97448 12.7457 9.08315 12.7929 9.19593C12.793 9.19608 12.7931 9.19623 12.7931 9.19638L13.7793 11.5788L13.9071 11.8876H14.2413H17.7587H18.0929L18.2207 11.5788L19.2069 9.19638C19.207 9.19618 19.207 9.19597 19.2071 9.19576C19.2545 9.08304 19.4086 8.97448 19.5603 8.97448C19.6718 8.97448 19.7983 9.04279 19.8627 9.21948L19.8632 9.22084L21.0642 12.487L21.1214 12.6426L21.2603 12.7332C22.8722 13.785 23.8217 15.5666 23.8217 17.5669V19.0234C23.8217 21.3857 22.4377 23.4095 20.4376 24.2569L19.8238 24.517L20.2454 25.0334C21.073 26.0472 21.5483 27.3478 21.5483 28.7338V29.8372V30.6439L22.2707 30.285C27.4172 27.7286 30.7842 22.3464 30.7842 16.4634C30.7842 8.07948 24.1823 1.26552 16 1.26552C7.81677 1.26552 1.21582 8.12461 1.21582 16.4634C1.21582 22.3457 4.58248 27.7299 9.73251 30.2425Z" fill="#FFA8EC" stroke="black"/>
<path d="M21.12 31.475L21.1006 31.4551L21.0792 31.4374C20.9306 31.3151 20.8753 31.1786 20.8753 31.1172V28.6897C20.8753 27.0263 20.067 25.506 18.6914 24.5741C18.5179 24.4432 18.4752 24.2832 18.5019 24.1732C18.5389 24.021 18.6703 23.9092 18.8041 23.8897C21.2565 23.6378 23.1059 21.5143 23.1059 18.9793V17.5228C23.1059 15.7614 22.1577 14.0902 20.6639 13.2473L20.6555 13.2426L20.647 13.2382C20.6172 13.2229 20.5561 13.1661 20.4944 13.0477L19.9477 11.4467L19.5209 10.1966L19.013 11.416L18.6269 12.3429C18.5688 12.4824 18.44 12.5648 18.3164 12.5648H13.6836C13.56 12.5648 13.4312 12.4824 13.3731 12.3429L12.987 11.416L12.4922 10.2279L12.0552 11.4385L11.5074 12.9559C11.4451 13.0767 11.3831 13.1344 11.353 13.1499L11.342 13.1555L11.3313 13.1617C9.79936 14.0484 8.8941 15.6727 8.8941 17.4345V18.891C8.8941 21.4367 10.7532 23.5046 13.1926 23.801C13.3275 23.8191 13.4608 23.9314 13.498 24.0849C13.5413 24.2631 13.4649 24.3999 13.3691 24.4492L13.3428 24.4627L13.3184 24.4792C11.9368 25.4106 11.1247 26.9341 11.1247 28.6014V31.029C11.1247 31.2001 11.0608 31.2643 11.0099 31.2906L10.9622 31.3151L10.9208 31.3491C10.8505 31.4071 10.7638 31.4141 10.6952 31.3788L10.6663 31.3639L10.6356 31.3529C4.58343 29.1776 0.5 23.1511 0.5 16.4634C0.5 7.63362 7.45304 0.5 16 0.5C24.547 0.5 31.5 7.63362 31.5 16.4634C31.5 23.1255 27.4461 29.1393 21.3768 31.4642C21.3603 31.4665 21.3451 31.4692 21.3316 31.4718C21.2947 31.4789 21.2602 31.4878 21.2406 31.4929L21.2374 31.4937C21.2264 31.4965 21.2191 31.4984 21.214 31.4996C21.1804 31.4982 21.1575 31.4933 21.1434 31.4884C21.1294 31.4836 21.124 31.4791 21.12 31.475Z" fill="#FFA8EC" stroke="black"/>
<path d="M15.5205 21.6452L15.9721 22.3864L16.3868 21.6239C16.6729 21.098 17.2276 20.7352 17.8867 20.7271C18.8732 20.715 19.7013 21.5114 19.7347 22.49C19.7359 22.5467 19.7181 22.6558 19.6491 22.8281C19.5818 22.996 19.4781 23.194 19.3405 23.4172C19.0654 23.8635 18.6795 24.3709 18.2549 24.8801C17.4689 25.8229 16.5834 26.7325 16.1113 27.2062C15.6212 26.751 14.7033 25.8812 13.8744 24.9649C13.428 24.4715 13.0168 23.9747 12.7136 23.5291C12.3957 23.0617 12.2513 22.7274 12.2359 22.5406C12.1658 21.6108 12.9581 20.7875 13.9622 20.7752C14.6068 20.7673 15.1951 21.1109 15.5205 21.6452Z" fill="#FF0000" stroke="black"/>
<path d="M12.0411 25.5316L12.0411 25.5316L12.0456 25.5311L12.1364 25.5209C12.3316 25.7528 12.5507 26.0017 12.7975 26.269C12.1168 26.5929 11.332 26.9316 10.5986 27.1628C10.1157 27.3151 9.6766 27.4137 9.31607 27.4379C8.94278 27.4629 8.73506 27.4025 8.63513 27.3304C8.40407 27.1605 8.16495 26.7772 7.98068 26.1786C7.80188 25.5978 7.69764 24.8886 7.67853 24.1674C7.65941 23.4461 7.72609 22.7362 7.87421 22.154C8.02739 21.552 8.24606 21.171 8.46342 21.0025L8.46666 20.9999C8.51796 20.9595 8.61775 20.9129 8.79889 20.8911C8.97797 20.8696 9.20513 20.8762 9.47622 20.9135C9.86835 20.9675 10.3163 21.0805 10.7829 21.229C10.6039 21.6719 10.5305 22.1514 10.5635 22.64C10.5649 22.678 10.5678 22.7205 10.5731 22.7675C10.4027 22.9952 10.3544 23.3039 10.4653 23.584L10.4754 23.6095L10.4882 23.6338C10.5139 23.6824 10.5719 23.7842 10.6582 23.8672C10.7732 23.9779 10.9235 24.0566 11.087 24.0875C11.1296 24.1573 11.1754 24.2299 11.2245 24.3054C11.1425 24.4489 11.1021 24.6218 11.1262 24.8132L11.1261 24.8132L11.1269 24.8186C11.1507 24.9924 11.2218 25.1645 11.3706 25.3078C11.5699 25.4996 11.8249 25.5539 12.0411 25.5316Z" fill="#C7B9B9" stroke="black"/>
<path d="M23.3782 20.8196L23.3782 20.8196L23.3824 20.8226C23.6139 20.9898 23.8539 21.3708 24.0383 21.9692C24.2169 22.5489 24.32 23.2576 24.337 23.9783C24.3539 24.6992 24.2841 25.4085 24.1321 25.9894C23.9749 26.5898 23.7521 26.9691 23.5302 27.1365L23.5301 27.1364L23.5203 27.1442C23.435 27.212 23.2393 27.2795 22.8629 27.2641C22.5025 27.2494 22.0584 27.1623 21.5668 27.0223C20.8159 26.8085 20.0054 26.4866 19.3023 26.1759C19.5166 25.9248 19.7233 25.6688 19.919 25.4138L20.0599 25.4243C20.5006 25.4608 20.9158 25.143 20.9508 24.6705C20.9655 24.4726 20.909 24.2807 20.8001 24.1257C20.828 24.0775 20.855 24.0296 20.8811 23.982C21.1641 23.9456 21.4364 23.7729 21.5479 23.4461C21.6449 23.1619 21.5859 22.8137 21.3625 22.5822C21.3648 22.5392 21.3655 22.4967 21.3644 22.4552C21.3522 21.9778 21.2411 21.5228 21.0505 21.1073C21.5118 20.9446 21.9558 20.8183 22.3471 20.7533C22.9234 20.6577 23.243 20.7197 23.3782 20.8196Z" fill="#C7B9B9" stroke="black"/>
</svg>
