<svg width="16" height="16" viewBox="0 0 16 16" fill="none" xmlns="http://www.w3.org/2000/svg">
<circle cx="8" cy="8" r="8" fill="white"/>
<mask id="path-2-inside-1_0_1" fill="white">
<path d="M10.6166 16C10.5308 16 10.445 15.9779 10.3807 15.9117C10.2735 15.8234 10.1877 15.691 10.1877 15.5586V14.3448C10.1877 13.5945 9.82306 12.9103 9.20107 12.491C9.05094 12.3807 8.96515 12.2041 9.00804 12.0276C9.05094 11.851 9.20107 11.7186 9.37265 11.6966C10.4665 11.5862 11.3029 10.6372 11.3029 9.48966V8.76138C11.3029 7.9669 10.874 7.21655 10.2091 6.84138C10.1233 6.79724 10.059 6.70897 10.0161 6.62069L9.73726 5.80414L9.54424 6.26759C9.47989 6.42207 9.32976 6.53241 9.15818 6.53241H6.84182C6.67024 6.53241 6.52011 6.42207 6.45576 6.26759L6.26273 5.80414L5.98391 6.57655C5.94102 6.66483 5.87668 6.7531 5.79088 6.79724C5.10456 7.19448 4.69705 7.92276 4.69705 8.71724V9.44552C4.69705 10.5931 5.53351 11.52 6.62734 11.6524C6.79893 11.6745 6.94906 11.8069 6.99196 11.9834C7.03485 12.16 6.97051 12.3586 6.79893 12.4469C6.17694 12.8662 5.81233 13.5503 5.81233 14.3007V15.5145C5.81233 15.669 5.74799 15.8014 5.6193 15.8676C5.51206 15.9559 5.36193 15.9779 5.23324 15.9117C2.10188 14.7862 0 11.6745 0 8.23172C0 3.68552 3.58177 0 8 0C12.4182 0 16 3.68552 16 8.23172C16 11.6745 13.8981 14.7862 10.7453 15.9779C10.7024 15.9779 10.6595 16 10.6166 16ZM8 0.882759C4.05362 0.882759 0.857909 4.1931 0.857909 8.23172C0.857909 11.0786 2.48794 13.6828 4.97587 14.8966V14.3448C4.97587 13.5945 5.23324 12.8883 5.68365 12.3366C4.58981 11.8731 3.83914 10.7697 3.83914 9.48966V8.76138C3.83914 7.70207 4.37533 6.70896 5.23324 6.15724L5.83378 4.52414C5.89812 4.34759 6.04826 4.23724 6.21984 4.23724C6.39142 4.23724 6.563 4.34759 6.62734 4.50207L7.12064 5.69379H8.87936L9.37265 4.50207C9.437 4.34759 9.60858 4.23724 9.78016 4.23724C9.95174 4.23724 10.1019 4.34759 10.1662 4.52414L10.7668 6.15724C11.6461 6.73103 12.1609 7.70207 12.1609 8.78345V9.51172C12.1609 10.7917 11.4102 11.8952 10.3164 12.3586C10.7668 12.9103 11.0241 13.6166 11.0241 14.3669V14.9186C13.5121 13.6828 15.1421 11.0786 15.1421 8.23172C15.1421 4.17103 11.9464 0.882759 8 0.882759Z"/>
</mask>
<path d="M10.6166 16C10.5308 16 10.445 15.9779 10.3807 15.9117C10.2735 15.8234 10.1877 15.691 10.1877 15.5586V14.3448C10.1877 13.5945 9.82306 12.9103 9.20107 12.491C9.05094 12.3807 8.96515 12.2041 9.00804 12.0276C9.05094 11.851 9.20107 11.7186 9.37265 11.6966C10.4665 11.5862 11.3029 10.6372 11.3029 9.48966V8.76138C11.3029 7.9669 10.874 7.21655 10.2091 6.84138C10.1233 6.79724 10.059 6.70897 10.0161 6.62069L9.73726 5.80414L9.54424 6.26759C9.47989 6.42207 9.32976 6.53241 9.15818 6.53241H6.84182C6.67024 6.53241 6.52011 6.42207 6.45576 6.26759L6.26273 5.80414L5.98391 6.57655C5.94102 6.66483 5.87668 6.7531 5.79088 6.79724C5.10456 7.19448 4.69705 7.92276 4.69705 8.71724V9.44552C4.69705 10.5931 5.53351 11.52 6.62734 11.6524C6.79893 11.6745 6.94906 11.8069 6.99196 11.9834C7.03485 12.16 6.97051 12.3586 6.79893 12.4469C6.17694 12.8662 5.81233 13.5503 5.81233 14.3007V15.5145C5.81233 15.669 5.74799 15.8014 5.6193 15.8676C5.51206 15.9559 5.36193 15.9779 5.23324 15.9117C2.10188 14.7862 0 11.6745 0 8.23172C0 3.68552 3.58177 0 8 0C12.4182 0 16 3.68552 16 8.23172C16 11.6745 13.8981 14.7862 10.7453 15.9779C10.7024 15.9779 10.6595 16 10.6166 16ZM8 0.882759C4.05362 0.882759 0.857909 4.1931 0.857909 8.23172C0.857909 11.0786 2.48794 13.6828 4.97587 14.8966V14.3448C4.97587 13.5945 5.23324 12.8883 5.68365 12.3366C4.58981 11.8731 3.83914 10.7697 3.83914 9.48966V8.76138C3.83914 7.70207 4.37533 6.70896 5.23324 6.15724L5.83378 4.52414C5.89812 4.34759 6.04826 4.23724 6.21984 4.23724C6.39142 4.23724 6.563 4.34759 6.62734 4.50207L7.12064 5.69379H8.87936L9.37265 4.50207C9.437 4.34759 9.60858 4.23724 9.78016 4.23724C9.95174 4.23724 10.1019 4.34759 10.1662 4.52414L10.7668 6.15724C11.6461 6.73103 12.1609 7.70207 12.1609 8.78345V9.51172C12.1609 10.7917 11.4102 11.8952 10.3164 12.3586C10.7668 12.9103 11.0241 13.6166 11.0241 14.3669V14.9186C13.5121 13.6828 15.1421 11.0786 15.1421 8.23172C15.1421 4.17103 11.9464 0.882759 8 0.882759Z" fill="#FFA8EC"/>
<path d="M10.3807 15.9117L11.0978 15.2148L11.0591 15.175L11.0162 15.1397L10.3807 15.9117ZM9.20107 12.491L8.60885 13.2968L8.62523 13.3088L8.64208 13.3202L9.20107 12.491ZM9.37265 11.6966L9.27228 10.7016L9.25866 10.703L9.24508 10.7047L9.37265 11.6966ZM10.2091 6.84138L10.7005 5.97046L10.6838 5.96099L10.6666 5.95216L10.2091 6.84138ZM10.0161 6.62069L9.06973 6.94383L9.08968 7.00224L9.11665 7.05775L10.0161 6.62069ZM9.73726 5.80414L10.6836 5.481L9.82991 2.98085L8.81413 5.41965L9.73726 5.80414ZM9.54424 6.26759L10.4674 6.65208L10.4674 6.65207L9.54424 6.26759ZM6.45576 6.26759L5.53263 6.65207L5.53263 6.65208L6.45576 6.26759ZM6.26273 5.80414L7.18586 5.41965L6.19614 3.04339L5.32214 5.46461L6.26273 5.80414ZM5.98391 6.57655L6.88335 7.01361L6.90651 6.96594L6.92451 6.91608L5.98391 6.57655ZM5.79088 6.79724L5.3334 5.90802L5.31138 5.91935L5.28995 5.93176L5.79088 6.79724ZM6.62734 11.6524L6.75492 10.6606L6.74752 10.6597L6.62734 11.6524ZM6.79893 12.4469L6.34144 11.5577L6.28892 11.5847L6.23994 11.6177L6.79893 12.4469ZM5.6193 15.8676L5.16182 14.9784L5.06651 15.0274L4.98376 15.0955L5.6193 15.8676ZM5.23324 15.9117L5.69073 15.0225L5.6328 14.9927L5.57149 14.9707L5.23324 15.9117ZM10.7453 15.9779V16.9779H10.928L11.0989 16.9133L10.7453 15.9779ZM4.97587 14.8966L4.5374 15.7953L5.97587 16.4971V14.8966H4.97587ZM5.68365 12.3366L6.4583 12.9689L7.30155 11.936L6.07377 11.4158L5.68365 12.3366ZM5.23324 6.15724L5.77415 6.99833L6.0561 6.817L6.1718 6.50237L5.23324 6.15724ZM5.83378 4.52414L6.77234 4.86927L6.77333 4.86655L5.83378 4.52414ZM6.62734 4.50207L7.55132 4.1196L7.55047 4.11758L6.62734 4.50207ZM7.12064 5.69379L6.19667 6.07626L6.45229 6.69379H7.12064V5.69379ZM8.87936 5.69379V6.69379H9.54771L9.80333 6.07626L8.87936 5.69379ZM9.37265 4.50207L8.44952 4.11758L8.44868 4.1196L9.37265 4.50207ZM10.1662 4.52414L9.22667 4.86655L9.22766 4.86927L10.1662 4.52414ZM10.7668 6.15724L9.8282 6.50237L9.94263 6.81354L10.2203 6.99472L10.7668 6.15724ZM10.3164 12.3586L9.92623 11.4379L8.69845 11.9581L9.5417 12.991L10.3164 12.3586ZM11.0241 14.9186H10.0241V16.5319L11.469 15.8142L11.0241 14.9186ZM10.6166 15C10.6923 15 10.9096 15.0212 11.0978 15.2148L9.66357 16.6087C9.98044 16.9347 10.3693 17 10.6166 17V15ZM11.0162 15.1397C11.0467 15.1647 11.0804 15.2002 11.1111 15.2537C11.141 15.3058 11.1877 15.4102 11.1877 15.5586H9.18767C9.18767 16.0981 9.50616 16.4871 9.74515 16.6838L11.0162 15.1397ZM11.1877 15.5586V14.3448H9.18767V15.5586H11.1877ZM11.1877 14.3448C11.1877 13.2613 10.6572 12.2667 9.76006 11.6619L8.64208 13.3202C8.98887 13.554 9.18767 13.9276 9.18767 14.3448H11.1877ZM9.79329 11.6853C9.88519 11.7528 10.0543 11.9569 9.97977 12.2637L8.03631 11.7915C7.87598 12.4514 8.21669 13.0086 8.60885 13.2968L9.79329 11.6853ZM9.97977 12.2637C9.92598 12.4851 9.74388 12.657 9.50022 12.6884L9.24508 10.7047C8.65826 10.7802 8.1759 11.217 8.03631 11.7915L9.97977 12.2637ZM9.47302 12.6915C11.1049 12.5269 12.3029 11.1229 12.3029 9.48966H10.3029C10.3029 10.1516 9.8281 10.6455 9.27228 10.7016L9.47302 12.6915ZM12.3029 9.48966V8.76138H10.3029V9.48966H12.3029ZM12.3029 8.76138C12.3029 7.6221 11.6933 6.53066 10.7005 5.97046L9.71768 7.71229C10.0547 7.90244 10.3029 8.3117 10.3029 8.76138H12.3029ZM10.6666 5.95216C10.7724 6.00661 10.8353 6.07202 10.8649 6.10755C10.8953 6.14411 10.9099 6.17214 10.9155 6.18363L9.11665 7.05775C9.19953 7.22831 9.38616 7.54257 9.75163 7.7306L10.6666 5.95216ZM10.9624 6.29755L10.6836 5.481L8.79091 6.12728L9.06973 6.94383L10.9624 6.29755ZM8.81413 5.41965L8.62111 5.8831L10.4674 6.65207L10.6604 6.18863L8.81413 5.41965ZM8.62111 5.8831C8.69793 5.69864 8.89064 5.53241 9.15818 5.53241V7.53241C9.76888 7.53241 10.2618 7.1455 10.4674 6.65208L8.62111 5.8831ZM9.15818 5.53241H6.84182V7.53241H9.15818V5.53241ZM6.84182 5.53241C7.10936 5.53241 7.30206 5.69864 7.37889 5.8831L5.53263 6.65208C5.73815 7.1455 6.23112 7.53241 6.84182 7.53241V5.53241ZM7.37889 5.8831L7.18586 5.41965L5.3396 6.18863L5.53263 6.65207L7.37889 5.8831ZM5.32214 5.46461L5.04332 6.23702L6.92451 6.91608L7.20333 6.14367L5.32214 5.46461ZM5.08448 6.13949C5.09006 6.128 5.10469 6.09997 5.13514 6.06341C5.16473 6.02789 5.22756 5.96248 5.3334 5.90802L6.24837 7.68646C6.61384 7.49843 6.80046 7.18418 6.88335 7.01361L5.08448 6.13949ZM5.28995 5.93176C4.28506 6.51338 3.69705 7.57722 3.69705 8.71724H5.69705C5.69705 8.2683 5.92406 7.87558 6.29182 7.66273L5.28995 5.93176ZM3.69705 8.71724V9.44552H5.69705V8.71724H3.69705ZM3.69705 9.44552C3.69705 11.0955 4.90786 12.4516 6.50717 12.6452L6.74752 10.6597C6.15917 10.5884 5.69705 10.0907 5.69705 9.44552H3.69705ZM6.49978 12.6442C6.25612 12.6129 6.07402 12.4409 6.02023 12.2195L7.96369 11.7474C7.8241 11.1728 7.34173 10.7361 6.75491 10.6606L6.49978 12.6442ZM6.02023 12.2195C5.9781 12.0461 6.0182 11.724 6.34144 11.5577L7.25641 13.3361C7.92282 12.9933 8.09161 12.2739 7.96369 11.7474L6.02023 12.2195ZM6.23994 11.6177C5.34276 12.2226 4.81233 13.2172 4.81233 14.3007H6.81233C6.81233 13.8835 7.01113 13.5099 7.35792 13.2761L6.23994 11.6177ZM4.81233 14.3007V15.5145H6.81233V14.3007H4.81233ZM4.81233 15.5145C4.81233 15.4554 4.82452 15.3614 4.88054 15.2558C4.93987 15.1438 5.0367 15.0427 5.16182 14.9784L6.07679 16.7568C6.61826 16.4782 6.81233 15.9447 6.81233 15.5145H4.81233ZM4.98376 15.0955C5.16474 14.9465 5.44181 14.8944 5.69073 15.0225L4.77576 16.8009C5.28205 17.0614 5.85939 16.9652 6.25485 16.6397L4.98376 15.0955ZM5.57149 14.9707C2.86124 13.9965 1 11.2788 1 8.23172H-1C-1 12.0701 1.34251 15.5759 4.895 16.8528L5.57149 14.9707ZM1 8.23172C1 4.21069 4.16078 1 8 1V-1C3.00276 -1 -1 3.16034 -1 8.23172H1ZM8 1C11.8392 1 15 4.21069 15 8.23172H17C17 3.16034 12.9972 -1 8 -1V1ZM15 8.23172C15 11.2736 13.1416 14.0031 10.3917 15.0425L11.0989 16.9133C14.6546 15.5693 17 12.0753 17 8.23172H15ZM10.7453 14.9779C10.6505 14.9779 10.5729 14.99 10.5237 14.9995C10.4985 15.0043 10.4773 15.0092 10.4626 15.0128C10.4487 15.0161 10.436 15.0194 10.4318 15.0205C10.4252 15.0222 10.4272 15.0217 10.4304 15.0209C10.4344 15.0199 10.4449 15.0174 10.4594 15.0147C10.4871 15.0093 10.5433 15 10.6166 15V17C10.7114 17 10.7891 16.9879 10.8382 16.9784C10.8634 16.9736 10.8846 16.9687 10.8993 16.9651C10.9133 16.9618 10.926 16.9585 10.9301 16.9574C10.9367 16.9557 10.9347 16.9563 10.9315 16.957C10.9275 16.958 10.917 16.9605 10.9026 16.9633C10.8749 16.9686 10.8187 16.9779 10.7453 16.9779V14.9779ZM8 -0.117241C3.47269 -0.117241 -0.142091 3.66991 -0.142091 8.23172H1.85791C1.85791 4.7163 4.63455 1.88276 8 1.88276V-0.117241ZM-0.142091 8.23172C-0.142091 11.4556 1.70115 14.4116 4.5374 15.7953L5.41434 13.9978C3.27472 12.9539 1.85791 10.7016 1.85791 8.23172H-0.142091ZM5.97587 14.8966V14.3448H3.97587V14.8966H5.97587ZM5.97587 14.3448C5.97587 13.824 6.15427 13.3414 6.4583 12.9689L4.90899 11.7042C4.31222 12.4352 3.97587 13.365 3.97587 14.3448H5.97587ZM6.07377 11.4158C5.35519 11.1113 4.83914 10.3742 4.83914 9.48966H2.83914C2.83914 11.1651 3.82444 12.6349 5.29353 13.2573L6.07377 11.4158ZM4.83914 9.48966V8.76138H2.83914V9.48966H4.83914ZM4.83914 8.76138C4.83914 8.03135 5.21144 7.3602 5.77415 6.99833L4.69234 5.31616C3.53923 6.05773 2.83914 7.37279 2.83914 8.76138H4.83914ZM6.1718 6.50237L6.77233 4.86927L4.89523 4.17901L4.29469 5.81211L6.1718 6.50237ZM6.77333 4.86655C6.70909 5.04282 6.51154 5.23724 6.21984 5.23724V3.23724C5.58498 3.23724 5.08716 3.65236 4.89423 4.18173L6.77333 4.86655ZM6.21984 5.23724C6.09535 5.23724 5.99445 5.19917 5.92008 5.15098C5.84616 5.10309 5.75967 5.0197 5.70422 4.88656L7.55047 4.11758C7.32284 3.57105 6.77381 3.23724 6.21984 3.23724V5.23724ZM5.70337 4.88453L6.19667 6.07626L8.04461 5.31133L7.55131 4.1196L5.70337 4.88453ZM7.12064 6.69379H8.87936V4.69379H7.12064V6.69379ZM9.80333 6.07626L10.2966 4.88453L8.44868 4.1196L7.95539 5.31133L9.80333 6.07626ZM10.2958 4.88656C10.2403 5.0197 10.1538 5.10309 10.0799 5.15098C10.0055 5.19917 9.90465 5.23724 9.78016 5.23724V3.23724C9.22619 3.23724 8.67716 3.57105 8.44952 4.11758L10.2958 4.88656ZM9.78016 5.23724C9.48846 5.23724 9.29091 5.04282 9.22667 4.86655L11.1058 4.18173C10.9128 3.65236 10.415 3.23724 9.78016 3.23724V5.23724ZM9.22766 4.86927L9.8282 6.50237L11.7053 5.81211L11.1048 4.17901L9.22766 4.86927ZM10.2203 6.99472C10.806 7.37693 11.1609 8.02698 11.1609 8.78345H13.1609C13.1609 7.37716 12.4862 6.08514 11.3132 5.31976L10.2203 6.99472ZM11.1609 8.78345V9.51172H13.1609V8.78345H11.1609ZM11.1609 9.51172C11.1609 10.3962 10.6448 11.1334 9.92623 11.4379L10.7065 13.2794C12.1756 12.6569 13.1609 11.1872 13.1609 9.51172H11.1609ZM9.5417 12.991C9.84573 13.3634 10.0241 13.846 10.0241 14.3669H12.0241C12.0241 13.3871 11.6878 12.4573 11.091 11.7262L9.5417 12.991ZM10.0241 14.3669V14.9186H12.0241V14.3669H10.0241ZM11.469 15.8142C14.2982 14.4088 16.1421 11.457 16.1421 8.23172H14.1421C14.1421 10.7002 12.7259 12.9567 10.5792 14.023L11.469 15.8142ZM16.1421 8.23172C16.1421 3.64586 12.5254 -0.117241 8 -0.117241V1.88276C11.3674 1.88276 14.1421 4.69621 14.1421 8.23172H16.1421Z" fill="black" mask="url(#path-2-inside-1_0_1)"/>
<path d="M10.6877 14.3448C10.6877 13.4809 10.2904 12.6858 9.6091 12.1685C10.8773 11.9476 11.8029 10.8159 11.8029 9.48966V8.76138C11.8029 7.80238 11.2921 6.88862 10.475 6.41745L10.2104 5.64257L9.78359 4.39249L9.2757 5.61189L9.10055 6.03241H6.89945L6.7243 5.61189L6.22944 4.42376L5.79244 5.63437L5.52581 6.37302C4.68908 6.86428 4.19705 7.75557 4.19705 8.71724V9.44552C4.19705 10.7836 5.13377 11.8862 6.39383 12.1221C5.71076 12.6394 5.31233 13.4355 5.31233 14.3007V15.4081C2.44091 14.3312 0.5 11.4432 0.5 8.23172C0.5 3.9481 3.87127 0.5 8 0.5C12.1287 0.5 15.5 3.9481 15.5 8.23172C15.5 11.4302 13.5731 14.3156 10.6877 15.464V14.3448Z" fill="#FFA8EC" stroke="black"/>
</svg>
