<svg width="400" height="300" viewBox="0 0 200 150" fill="none" xmlns="http://www.w3.org/2000/svg">
<rect width="200" height="150" fill="white" fill-opacity="0.01"/>
<rect x="25.5" y="0.5" width="149" height="149" rx="9.5" fill="white" stroke="black" stroke-linejoin="round"/>
<rect x="32.5" y="5.5" width="136" height="138" rx="3.5" fill="#FFE1F8" stroke="black" stroke-linejoin="round"/>
<path d="M72.154 136.712L72.1546 136.7V136.687V131.579C72.1546 124.749 74.5264 118.323 78.674 113.304L79.1034 112.785L78.4817 112.525C68.4153 108.312 61.5 98.2778 61.5 86.6285V79.8859C61.5 70.2459 66.4413 61.2124 74.3351 56.198L74.4769 56.1079L74.5356 55.9504L80.1644 40.8306L80.1649 40.8293C80.7022 39.3732 81.934 38.5 83.3144 38.5C84.7347 38.5 86.1528 39.4129 86.6729 40.6454C86.6731 40.6456 86.6732 40.6459 86.6733 40.6461L91.2966 51.6785L91.4251 51.9852H91.7577H108.242H108.575L108.703 51.6785L113.327 40.6461C113.847 39.4132 115.265 38.5 116.686 38.5C118.066 38.5 119.298 39.3733 119.835 40.8293L119.836 40.8306L125.464 55.9504L125.522 56.1062L125.662 56.1962C133.758 61.414 138.5 70.2437 138.5 80.0902V86.8328C138.5 98.4821 131.585 108.516 121.518 112.729L120.897 112.989L121.326 113.509C125.474 118.527 127.845 124.953 127.845 131.784V136.882C127.789 138.371 127.793 139.647 127.806 140.731C127.809 140.992 127.813 141.24 127.816 141.477C127.828 142.234 127.837 142.875 127.823 143.423C127.804 144.149 127.744 144.652 127.618 145.007C127.502 145.333 127.339 145.515 127.086 145.633C126.649 145.838 126.287 146.247 125.995 146.658C125.695 147.081 125.421 147.577 125.182 148.032C125.107 148.174 125.037 148.311 124.97 148.44C124.815 148.74 124.678 149.004 124.552 149.218C124.475 149.35 124.413 149.441 124.367 149.5H78.5C77.0072 149.5 76.2671 149.339 75.9162 149.154C75.7579 149.07 75.7058 148.996 75.6835 148.949C75.6578 148.895 75.6421 148.817 75.6513 148.682C75.6594 148.564 75.6822 148.444 75.7113 148.29C75.7177 148.257 75.7243 148.222 75.7312 148.185C75.7658 147.999 75.8061 147.761 75.7912 147.52C75.7753 147.264 75.697 146.99 75.4882 146.745C75.2861 146.508 74.998 146.341 74.6402 146.224C73.5514 145.867 72.8589 145.035 72.4672 143.494C72.0684 141.924 72.0068 139.701 72.154 136.712Z" fill="white" stroke="black"/>
<path d="M120.949 61.6564L120.941 61.6518L120.933 61.6474C120.276 61.314 119.74 60.6219 119.359 59.858L116.756 52.3333L116.33 51.1011L115.823 52.3024L114.014 56.5902C113.483 57.8482 112.248 58.7347 110.856 58.7347H89.1443C87.7518 58.7347 86.5172 57.8482 85.9864 56.5902L84.1771 52.3024L83.6832 51.1319L83.2469 52.3251L80.6428 59.4458C80.2621 60.2112 79.7251 60.9051 79.0674 61.2391L79.0564 61.2446L79.0458 61.2507C72.4539 65.0167 68.5412 71.9221 68.5412 79.4486V86.1865C68.5412 97.0598 76.5731 105.845 87.0728 107.101C88.4762 107.28 89.7138 108.356 90.066 109.787C90.424 111.241 89.8768 112.818 88.5158 113.509L88.4897 113.522L88.4653 113.539C82.4978 117.51 78.9948 123.995 78.9948 131.106V142.336C78.9948 142.518 79.0006 142.765 79.0075 143.058C79.0291 143.981 79.0616 145.366 78.9592 146.665C78.8917 147.521 78.7682 148.288 78.5648 148.827C78.3483 149.401 78.1341 149.5 78 149.5H73.5C73.0805 149.5 72.7288 149.253 72.4384 148.558C72.1437 147.852 71.977 146.81 71.9054 145.524C71.7891 143.436 71.9287 140.857 72.0647 138.343C72.0957 137.771 72.1265 137.202 72.154 136.644L72.1546 136.631V136.619V131.514C72.1546 124.689 74.5263 118.268 78.6739 113.253L79.1038 112.733L78.4816 112.473C68.4151 108.263 61.5 98.2358 61.5 86.5949V79.8569C61.5 70.2239 66.4412 61.1967 74.335 56.1858L74.4769 56.0957L74.5355 55.9382L80.1644 40.8289L80.1649 40.8275C80.702 39.3728 81.9338 38.5 83.3144 38.5C84.735 38.5 86.1531 39.4124 86.6731 40.6439C86.6731 40.6441 86.6732 40.6443 86.6733 40.6445L91.2966 51.6692L91.4252 51.9759H91.7577H108.242H108.575L108.703 51.6692L113.308 40.6892C113.597 40.267 114.097 39.7174 114.706 39.2722C115.338 38.8097 116.031 38.5 116.686 38.5C118.066 38.5 119.298 39.3728 119.835 40.8275L119.836 40.8289L125.464 55.9382L125.522 56.094L125.662 56.184C133.758 61.3982 138.5 70.2216 138.5 80.0611V86.799C138.5 98.44 131.585 108.467 121.518 112.677L120.896 112.937L121.326 113.457C125.474 118.472 127.845 124.893 127.845 131.719V136.814C127.789 138.302 127.784 139.871 127.782 141.379L127.782 141.607C127.78 143.041 127.779 144.411 127.735 145.614C127.689 146.888 127.597 147.936 127.42 148.655C127.332 149.017 127.231 149.253 127.136 149.387C127.054 149.503 127.011 149.501 127.001 149.5L127 149.5H124.5H121.726C121.698 149.454 121.665 149.393 121.63 149.312C121.552 149.13 121.478 148.891 121.412 148.601C121.28 148.021 121.189 147.292 121.128 146.531C121.005 145.011 121.005 143.427 121.005 142.781V142.744V131.514C121.005 124.406 117.506 117.924 111.543 113.953C110.262 113.019 109.593 111.58 109.934 110.195C110.286 108.766 111.521 107.69 112.923 107.51C123.436 106.459 131.459 97.4581 131.459 86.5949V79.8569C131.459 72.3308 127.345 65.2185 120.949 61.6564Z" fill="#FFA8EC" stroke="black"/>
<path d="M99.3246 103.815L99.7757 104.56L100.185 103.792C101.048 102.171 102.735 101.061 104.741 101.05C107.737 101.033 110.261 103.495 110.38 106.507C110.389 106.811 110.305 107.214 110.109 107.715C109.915 108.211 109.626 108.771 109.259 109.378C108.526 110.591 107.508 111.949 106.406 113.291C104.21 115.965 101.718 118.529 100.586 119.672C100.395 119.841 100.161 119.828 100.012 119.683L100.012 119.683L100.005 119.676C98.8166 118.562 96.2016 116.079 93.8492 113.449C92.6723 112.133 91.5703 110.79 90.7471 109.571C89.9089 108.329 89.415 107.294 89.3526 106.573C89.1118 103.616 91.5623 101.126 94.5712 101.108C96.5354 101.097 98.3277 102.169 99.3246 103.815Z" fill="#FF0000" stroke="black"/>
<path d="M89.6015 113.563L89.6015 113.563L89.606 113.563L90.2701 113.491C91.0176 114.405 91.9126 115.43 92.9939 116.577C91.0261 117.552 88.5447 118.675 86.2355 119.399C84.9576 119.799 83.7537 120.07 82.7305 120.133C81.695 120.196 80.9247 120.041 80.4361 119.681C79.6209 119.073 78.9266 117.854 78.4215 116.224C77.9219 114.611 77.6312 112.673 77.5675 110.722C77.5039 108.772 77.668 106.833 78.0632 105.221C78.4634 103.588 79.0791 102.378 79.8493 101.775L79.8526 101.772C80.1365 101.546 80.5507 101.393 81.107 101.329C81.6611 101.265 82.3231 101.294 83.0672 101.402C84.3931 101.596 85.9244 102.034 87.4681 102.584C86.7917 103.836 86.5048 105.257 86.6146 106.724C86.6204 106.883 86.6412 107.096 86.6913 107.361C86.2545 107.738 86.0935 108.373 86.3189 108.942L86.3289 108.967L86.3416 108.991C86.3981 109.098 86.5013 109.273 86.631 109.399C86.8969 109.658 87.2759 109.812 87.6637 109.79C87.9044 110.207 88.1958 110.671 88.5434 111.189C88.2306 111.466 88.0398 111.887 88.1039 112.377L88.1039 112.377L88.1046 112.383C88.148 112.689 88.2657 112.962 88.5017 113.192C88.8172 113.5 89.2285 113.6 89.6015 113.563Z" fill="#9BABFF" stroke="black"/>
<path d="M119.462 101.55L119.462 101.55L119.466 101.553C120.285 102.155 120.982 103.369 121.487 104.998C121.986 106.608 122.274 108.547 122.332 110.496C122.39 112.447 122.217 114.385 121.811 115.995C121.4 117.625 120.771 118.832 119.985 119.43L119.985 119.43L119.975 119.438C119.532 119.793 118.788 119.961 117.748 119.911C116.725 119.862 115.504 119.607 114.198 119.222C111.831 118.525 109.257 117.425 107.214 116.462C108.102 115.456 108.951 114.399 109.726 113.354L110.526 113.419C111.253 113.487 111.921 112.962 111.973 112.191C112.006 111.685 111.766 111.209 111.369 110.939C111.636 110.497 111.873 110.07 112.085 109.651C112.676 109.732 113.32 109.448 113.538 108.787C113.736 108.191 113.53 107.473 112.964 107.132C112.998 106.901 113.012 106.674 113.005 106.464C112.959 105.021 112.541 103.658 111.838 102.459C113.352 101.883 114.86 101.419 116.18 101.206C117.696 100.961 118.823 101.071 119.462 101.55Z" fill="#9BABFF" stroke="black"/>
</svg>
