<svg width="76" height="76" viewBox="0 0 76 76" fill="none" xmlns="http://www.w3.org/2000/svg">
<circle cx="38" cy="38" r="38" fill="white"/>
<path d="M49.6669 75.2322L49.6475 75.2123L49.6261 75.1947C49.1826 74.8296 48.8914 74.3289 48.8914 73.9035V68.1379C48.8914 64.4108 47.0801 61.0089 43.9936 58.9239C43.4067 58.4888 43.1297 57.8434 43.2741 57.2491C43.429 56.6116 43.9728 56.1359 44.5777 56.0553C50.0388 55.5005 54.189 50.7671 54.189 45.0759V41.6166C54.189 37.6704 52.0611 33.9357 48.739 32.0611L48.7306 32.0564L48.722 32.0519C48.4607 31.9175 48.2214 31.6223 48.0392 31.2564L46.7252 27.4081L46.2983 26.158L45.7904 27.3774L44.8736 29.5788C44.6385 30.1431 44.0968 30.529 43.5013 30.529H32.4987C31.9032 30.529 31.3615 30.1431 31.1264 29.5788L30.2096 27.3774L29.7147 26.1893L29.2777 27.3999L27.9626 31.043C27.7802 31.4106 27.5402 31.7074 27.278 31.8423L27.2669 31.848L27.2562 31.8542C23.8369 33.8332 21.811 37.4603 21.811 41.4069V44.8662C21.811 50.5678 25.9703 55.1847 31.4178 55.8451C32.0245 55.9239 32.5707 56.4004 32.7259 57.0394C32.8872 57.7031 32.6338 58.3861 32.0662 58.6782L32.0399 58.6917L32.0154 58.7082C28.9234 60.7927 27.1086 64.1976 27.1086 67.9283V73.6938C27.1086 74.2897 26.8678 74.7181 26.4629 74.9264L26.4153 74.951L26.3739 74.985C26.0086 75.2857 25.5091 75.3534 25.0866 75.1361L25.0577 75.1212L25.027 75.1102C10.3636 69.8396 0.5 55.256 0.5 39.1007C0.5 17.7688 17.3029 0.5 38 0.5C58.6971 0.5 75.5 17.7688 75.5 39.1007C75.5 55.2271 65.6699 69.7954 50.9355 75.4001C50.8097 75.4117 50.6977 75.4407 50.625 75.4595L50.61 75.4634C50.496 75.4927 50.4565 75.5 50.429 75.5C50.1022 75.5 49.8462 75.4168 49.6669 75.2322Z" fill="#FFA8EC" fill-opacity="0.35" stroke="black"/>
<path d="M49.6669 75.2322L49.6475 75.2123L49.6261 75.1947C49.1826 74.8296 48.8914 74.3289 48.8914 73.9034V68.1379C48.8914 64.4108 47.0801 61.0089 43.9935 58.9239C43.4067 58.4887 43.1297 57.8434 43.2741 57.2491C43.4289 56.6116 43.9728 56.1359 44.5777 56.0553C50.0388 55.5005 54.189 50.7671 54.189 45.0759V41.6166C54.189 37.6704 52.0611 33.9357 48.739 32.0611L48.7306 32.0564L48.722 32.0519C48.4607 31.9175 48.2214 31.6223 48.0392 31.2564L46.7252 27.4081L46.2983 26.158L45.7904 27.3774L44.8736 29.5788C44.6385 30.1431 44.0968 30.529 43.5013 30.529H32.4987C31.9032 30.529 31.3615 30.1431 31.1264 29.5788L30.2096 27.3774L29.7147 26.1893L29.2777 27.3999L27.9626 31.043C27.7802 31.4106 27.5402 31.7074 27.278 31.8423L27.2669 31.8479L27.2562 31.8542C23.8369 33.8332 21.811 37.4603 21.811 41.4069V44.8662C21.811 50.5678 25.9703 55.1847 31.4178 55.8451C32.0245 55.9239 32.5707 56.4004 32.7259 57.0394C32.8872 57.7031 32.6338 58.3861 32.0662 58.6781L32.0399 58.6917L32.0154 58.7082C28.9234 60.7927 27.1086 64.1976 27.1086 67.9283V73.6938C27.1086 74.2897 26.8678 74.7181 26.4629 74.9264L26.4153 74.9509L26.3739 74.985C26.0086 75.2857 25.5091 75.3534 25.0866 75.1361L25.0577 75.1212L25.027 75.1102C10.3636 69.8396 0.5 55.256 0.5 39.1007C0.5 17.7688 17.3029 0.5 38 0.5C58.6971 0.5 75.5 17.7688 75.5 39.1007C75.5 55.2271 65.6699 69.7954 50.9355 75.4001C50.8097 75.4117 50.6976 75.4407 50.625 75.4595C50.6198 75.4608 50.6148 75.4621 50.61 75.4633C50.496 75.4927 50.4565 75.5 50.4289 75.5C50.1022 75.5 49.8462 75.4168 49.6669 75.2322ZM23.4162 71.208L24.1354 71.5589V70.7586V68.1379C24.1354 64.6885 25.3184 61.4459 27.3846 58.9148L27.8063 58.3983L27.1924 58.1382C22.1843 56.0163 18.7359 50.9581 18.7359 45.0759V41.6166C18.7359 36.7495 21.2009 32.1932 25.1284 29.6674L25.2693 29.5768L25.3272 29.4195L28.1797 21.6622L28.1802 21.6609C28.4216 20.9986 28.9609 20.6269 29.5442 20.6269C30.168 20.6269 30.7942 21.0392 31.0183 21.5769C31.0183 21.577 31.0183 21.577 31.0183 21.5771L33.3611 27.2367L33.4889 27.5455H33.8231H42.1769H42.5111L42.6389 27.2367L44.9817 21.5771C44.9817 21.577 44.9817 21.577 44.9817 21.5769C45.2058 21.0392 45.832 20.6269 46.4558 20.6269C47.0391 20.6269 47.5784 20.9986 47.8198 21.6609L47.8203 21.6622L50.6728 29.4195L50.73 29.575L50.8689 29.6656C54.899 32.2954 57.2641 36.7473 57.2641 41.7214V45.1807C57.2641 51.0629 53.8157 56.1212 48.8076 58.2431L48.1937 58.5032L48.6153 59.0196C50.6816 61.5507 51.8646 64.7934 51.8646 68.2428V70.8634V71.6701L52.587 71.3112C64.5754 65.3561 72.4249 52.8126 72.4249 39.1007C72.4249 19.5498 57.0348 3.6931 38 3.6931C18.9642 3.6931 3.57507 19.6556 3.57507 39.1007C3.57507 52.8119 11.4243 65.3575 23.4162 71.208Z" fill="#FFA8EC" stroke="black"/>
<path d="M37.4484 51.0496L37.8999 51.7909L38.3146 51.0284C39.109 49.5679 40.6499 48.5618 42.4725 48.5395C45.1918 48.5061 47.4672 50.696 47.5572 53.3945C47.5637 53.6609 47.4859 54.0203 47.3046 54.4726C47.1253 54.92 46.8579 55.4267 46.5189 55.9766C45.8408 57.0765 44.901 58.3101 43.8835 59.5306C41.8564 61.962 39.559 64.2955 38.5149 65.3363C38.3495 65.4809 38.1626 65.4619 38.0505 65.354L38.0506 65.354L38.0432 65.3471C36.9609 64.3468 34.5805 62.1171 32.4418 59.753C31.3718 58.5702 30.3716 57.3639 29.6264 56.2682C28.8662 55.1507 28.4266 54.226 28.3748 53.5881C28.1737 50.9394 30.4149 48.6872 33.1518 48.6537C34.935 48.6318 36.5541 49.5817 37.4484 51.0496Z" fill="#FF0000" stroke="black"/>
<path d="M28.527 59.9537L28.527 59.9538L28.5315 59.9532L29.1146 59.8876C29.7817 60.6938 30.5773 61.5944 31.5347 62.6001C29.7341 63.4877 27.4773 64.5057 25.3785 65.1675C24.2063 65.5371 23.1049 65.7884 22.1716 65.8509C21.2252 65.9143 20.5344 65.7777 20.1035 65.4654C19.3741 64.9304 18.7493 63.8456 18.2971 62.3765C17.8504 60.9254 17.5959 59.1771 17.5493 57.4158C17.5026 55.6544 17.6643 53.9032 18.035 52.4463C18.4107 50.9695 18.9795 49.8803 19.6794 49.3376L19.6826 49.3351C19.9371 49.1343 20.31 48.9947 20.8153 48.9339C21.3186 48.8734 21.921 48.8951 22.5998 48.9886C23.7935 49.1529 25.17 49.5312 26.5607 50.0101C25.9486 51.1414 25.6842 52.419 25.7752 53.7354C25.7795 53.877 25.7966 54.0632 25.8381 54.2937C25.4367 54.6489 25.2861 55.2334 25.4943 55.7589L25.5044 55.7844L25.5172 55.8087C25.569 55.9065 25.6657 56.0697 25.79 56.1894C26.036 56.4262 26.3834 56.5665 26.7411 56.5531C26.9516 56.9135 27.2041 57.3129 27.5027 57.7557C27.2214 58.016 27.0507 58.4002 27.1068 58.8454L27.1068 58.8454L27.1075 58.8508C27.1466 59.1359 27.257 59.3941 27.482 59.6107C27.7828 59.9004 28.175 59.9901 28.527 59.9537Z" fill="#C7B9B9" stroke="black"/>
<path d="M55.9315 48.8932L55.9315 48.8933L55.9356 48.8963C56.6686 49.4255 57.2958 50.5066 57.748 51.9745C58.1945 53.4237 58.4462 55.1714 58.4877 56.9323C58.5291 58.6934 58.3596 60.444 57.9787 61.899C57.5928 63.3734 57.0122 64.4595 56.2984 64.9981L56.2983 64.998L56.2885 65.0058C55.8908 65.3219 55.22 65.4779 54.2713 65.4392C53.3387 65.4011 52.2253 65.1787 51.0329 64.8392C48.894 64.2303 46.5719 63.2656 44.7158 62.4142C45.5176 61.5157 46.2845 60.5748 46.9866 59.6445L47.6964 59.6974C48.3854 59.7558 49.0191 59.262 49.0726 58.5416C49.1065 58.0837 48.8971 57.651 48.5429 57.3944C48.7767 57.0135 48.9862 56.6437 49.1747 56.2812C49.7268 56.3411 50.3186 56.0693 50.5257 55.4625C50.7115 54.9178 50.534 54.256 50.0154 53.9295C50.0451 53.7286 50.058 53.5319 50.0533 53.3487C50.0199 52.0527 49.6517 50.8302 49.0258 49.753C50.4015 49.2302 51.7677 48.8092 52.9619 48.6109C54.3533 48.38 55.3671 48.4769 55.9315 48.8932Z" fill="#C7B9B9" stroke="black"/>
</svg>
