<svg width="152" height="152" viewBox="0 0 152 152" fill="none" xmlns="http://www.w3.org/2000/svg">
<circle cx="76" cy="76" r="75.5" fill="#FFA8EC" stroke="black"/>
<path d="M144.5 75.5C144.5 114.17 113.821 145.5 76 145.5C38.1786 145.5 7.5 114.17 7.5 75.5C7.5 36.8299 38.1786 5.5 76 5.5C113.821 5.5 144.5 36.8299 144.5 75.5Z" fill="#FFE1F8" stroke="black"/>
<path d="M53.6377 148.131L53.6026 148.121L53.5664 148.116C52.6142 147.988 52.0184 147.968 51.6276 148.015C51.4281 148.039 51.2597 148.082 51.1168 148.153C50.985 148.219 50.8954 148.298 50.8306 148.369C50.7911 148.363 50.7372 148.352 50.665 148.335C50.508 148.297 50.2899 148.234 49.9836 148.135C48.8595 147.773 48.1494 146.93 47.7483 145.378C47.3395 143.796 47.2762 141.554 47.4272 138.54L47.4278 138.528V138.515V133.365C47.4278 126.478 49.8599 119.999 54.1147 114.937L54.555 114.413L53.9222 114.153C43.5908 109.902 36.5 99.7804 36.5 88.0366V81.2374C36.5 71.519 41.5667 62.4082 49.6669 57.3492L49.8099 57.2599L49.8696 57.1022L55.6428 41.8555L55.6434 41.8541C56.1938 40.3873 57.4597 39.5 58.8866 39.5C60.353 39.5 61.8108 40.426 62.3443 41.6688C62.3444 41.669 62.3445 41.6693 62.3446 41.6695L67.0864 52.7944L67.216 53.0984H67.5464H84.4536H84.784L84.9135 52.7944L89.6554 41.6695C90.1885 40.4264 91.6466 39.5 93.1134 39.5C94.5402 39.5 95.8061 40.3873 96.3566 41.8541L96.3571 41.8555L102.13 57.1022L102.189 57.2582L102.33 57.3475C110.637 62.6116 115.5 71.5168 115.5 81.4435V88.2427C115.5 99.9865 108.409 110.108 98.0778 114.359L97.445 114.619L97.8853 115.143C102.14 120.205 104.572 126.684 104.572 133.571V138.712C104.514 140.214 104.518 141.5 104.532 142.593C104.535 142.856 104.539 143.107 104.543 143.346C104.554 144.109 104.564 144.755 104.549 145.308C104.53 146.039 104.468 146.547 104.339 146.904C104.221 147.232 104.052 147.418 103.789 147.539C103.254 147.786 102.49 147.843 101.732 147.821C101.363 147.81 101.014 147.781 100.717 147.754C100.673 147.75 100.629 147.745 100.585 147.741C100.355 147.72 100.139 147.7 100 147.7C99.673 147.7 99.396 147.768 99.0398 147.879C98.9048 147.92 98.7634 147.966 98.6023 148.019C98.3161 148.112 97.9675 148.225 97.4813 148.371C96.0002 148.815 93.3911 149.512 88.4019 150.51C83.5541 151.479 78.0194 151.5 72.0191 151.4C66.1046 151.046 60.38 150.062 58.1377 149.419L53.6377 148.131Z" fill="white" stroke="black"/>
<path d="M99.24 147.649L99.2205 147.629L99.1988 147.612C98.2327 146.839 97.531 145.732 97.531 144.705V133.372C97.531 126.197 93.9403 119.657 87.8288 115.651C86.5106 114.706 85.8267 113.253 86.1757 111.858C86.5362 110.417 87.8044 109.326 89.2516 109.143C100.022 108.084 108.253 99.0083 108.253 88.0407V81.2409C108.253 73.6433 104.032 66.4679 97.4774 62.8758L97.4691 62.8713L97.4606 62.867C96.7833 62.5286 96.2325 61.828 95.8424 61.0576L93.1727 53.4639L92.7471 52.2535L92.2415 53.4327L90.3858 57.7598C89.8416 59.0288 88.5724 59.9295 87.134 59.9295H64.8659C63.4275 59.9295 62.1583 59.0288 61.6141 57.7598L59.7585 53.4327L59.2658 52.2838L58.8303 53.4556L56.1595 60.6416C55.7693 61.4135 55.2178 62.1159 54.5394 62.4549L54.5285 62.4603L54.5179 62.4663C47.7618 66.2642 43.7474 73.231 43.7474 80.8288V87.6286C43.7474 98.6059 51.9871 107.465 62.7437 108.73C64.1928 108.912 65.4633 110.003 65.8242 111.446C66.1905 112.91 65.6326 114.504 64.2301 115.205L64.204 115.218L64.1797 115.233C58.063 119.238 54.469 125.781 54.469 132.96V144.293C54.469 144.481 54.4734 144.661 54.4779 144.83L54.4791 144.874C54.4832 145.029 54.487 145.174 54.4878 145.315C54.4895 145.623 54.4762 145.889 54.4258 146.137C54.3312 146.604 54.0941 147.072 53.4197 147.612C53.3087 147.7 53.2101 147.781 53.1202 147.855C52.7448 148.164 52.5221 148.347 52.1916 148.44C51.8032 148.55 51.2041 148.538 49.9836 148.144C48.8596 147.782 48.1494 146.939 47.7483 145.387C47.3395 143.805 47.2762 141.563 47.4272 138.549L47.4278 138.536V138.524V133.372C47.4278 126.485 49.8599 120.005 54.1147 114.943L54.5549 114.42L53.9222 114.159C43.5908 109.908 36.5 99.7855 36.5 88.0407V81.2409C36.5 71.5217 41.5667 62.4101 49.6669 57.3507L49.8099 57.2614L49.8696 57.1037L55.6428 41.8557L55.6434 41.8544C56.1939 40.3873 57.4597 39.5 58.8866 39.5C60.353 39.5 61.8108 40.426 62.3442 41.6689C62.3443 41.6692 62.3444 41.6694 62.3446 41.6697L67.0864 52.7955L67.2159 53.0995H67.5464H84.4536H84.784L84.9135 52.7955L89.6554 41.6697C90.1885 40.4264 91.6466 39.5 93.1134 39.5C94.5402 39.5 95.8061 40.3873 96.3566 41.8544L96.3571 41.8557L102.13 57.1037L102.189 57.2597L102.33 57.349C110.637 62.6135 115.5 71.5194 115.5 81.447V88.2467C115.5 99.9916 108.409 110.114 98.0778 114.365L97.4451 114.626L97.8853 115.149C102.14 120.211 104.572 126.691 104.572 133.578V138.72C104.514 140.222 104.518 141.509 104.532 142.602C104.535 142.865 104.539 143.115 104.543 143.354C104.554 144.118 104.564 144.763 104.549 145.317C104.53 146.048 104.468 146.556 104.339 146.913C104.221 147.241 104.052 147.427 103.789 147.548C102.528 148.129 101.535 148.326 101.155 148.326C100.407 148.326 99.7317 148.14 99.24 147.649Z" fill="#FFA8EC" stroke="black"/>
<path d="M99.24 147.649L99.2205 147.629L99.1988 147.612C98.2327 146.839 97.531 145.732 97.531 144.705V133.372C97.531 126.197 93.9403 119.657 87.8288 115.651C86.5106 114.706 85.8267 113.253 86.1757 111.858C86.5362 110.417 87.8044 109.326 89.2516 109.143C100.022 108.084 108.253 99.0083 108.253 88.0407V81.2409C108.253 73.6433 104.032 66.4679 97.4774 62.8758L97.4691 62.8713L97.4606 62.867C96.7833 62.5286 96.2325 61.828 95.8424 61.0576L93.1727 53.4639L92.7471 52.2535L92.2415 53.4327L90.3858 57.7598C89.8416 59.0288 88.5724 59.9295 87.134 59.9295H64.8659C63.4275 59.9295 62.1583 59.0288 61.6141 57.7598L59.7585 53.4327L59.2658 52.2838L58.8303 53.4556L56.1595 60.6416C55.7693 61.4135 55.2178 62.1159 54.5394 62.4549L54.5285 62.4603L54.5179 62.4663C47.7618 66.2642 43.7474 73.231 43.7474 80.8288V87.6286C43.7474 98.6059 51.9871 107.465 62.7437 108.73C64.1928 108.912 65.4633 110.003 65.8242 111.446C66.1905 112.91 65.6326 114.504 64.2301 115.205L64.204 115.218L64.1797 115.233C58.063 119.238 54.469 125.781 54.469 132.96V144.293C54.469 144.481 54.4734 144.661 54.4779 144.83L54.4791 144.874C54.4832 145.029 54.487 145.174 54.4878 145.315C54.4895 145.623 54.4762 145.889 54.4258 146.137C54.3312 146.604 54.0941 147.072 53.4197 147.612C53.3087 147.7 53.2101 147.781 53.1202 147.855C52.7448 148.164 52.5221 148.347 52.1916 148.44C51.8032 148.55 51.2041 148.538 49.9836 148.144C48.8596 147.782 48.1494 146.939 47.7483 145.387C47.3395 143.805 47.2762 141.563 47.4272 138.549L47.4278 138.536V138.524V133.372C47.4278 126.485 49.8599 120.005 54.1147 114.943L54.5549 114.42L53.9222 114.159C43.5908 109.908 36.5 99.7855 36.5 88.0407V81.2409C36.5 71.5217 41.5667 62.4101 49.6669 57.3507L49.8099 57.2614L49.8696 57.1037L55.6428 41.8557L55.6434 41.8544C56.1939 40.3873 57.4597 39.5 58.8866 39.5C60.353 39.5 61.8108 40.426 62.3442 41.6689C62.3443 41.6692 62.3444 41.6694 62.3446 41.6697L67.0864 52.7955L67.2159 53.0995H67.5464H84.4536H84.784L84.9135 52.7955L89.6554 41.6697C90.1885 40.4264 91.6466 39.5 93.1134 39.5C94.5402 39.5 95.8061 40.3873 96.3566 41.8544L96.3571 41.8557L102.13 57.1037L102.189 57.2597L102.33 57.349C110.637 62.6135 115.5 71.5194 115.5 81.447V88.2467C115.5 99.9916 108.409 110.114 98.0778 114.365L97.4451 114.626L97.8853 115.149C102.14 120.211 104.572 126.691 104.572 133.578V138.72C104.514 140.222 104.518 141.509 104.532 142.602C104.535 142.865 104.539 143.115 104.543 143.354C104.554 144.118 104.564 144.763 104.549 145.317C104.53 146.048 104.468 146.556 104.339 146.913C104.221 147.241 104.052 147.427 103.789 147.548C102.528 148.129 101.535 148.326 101.155 148.326C100.407 148.326 99.7317 148.14 99.24 147.649Z" fill="#FFA8EC" stroke="black"/>
<path d="M75.152 112.196L75.6031 112.941L76.0124 112.172C76.8876 110.528 78.5992 109.402 80.6347 109.39C83.6743 109.373 86.2354 111.871 86.3556 114.927C86.3652 115.236 86.2789 115.646 86.0807 116.154C85.8843 116.657 85.5908 117.225 85.2191 117.84C84.4757 119.069 83.444 120.446 82.3271 121.806C80.1014 124.516 77.5761 127.114 76.4293 128.272C76.2334 128.446 75.9924 128.434 75.8384 128.283L75.8385 128.283L75.8312 128.276C74.627 127.148 71.977 124.632 69.593 121.966C68.4003 120.633 67.2834 119.272 66.449 118.036C65.5996 116.778 65.0982 115.727 65.0348 114.995C64.7903 111.993 67.277 109.467 70.3295 109.45C72.3223 109.438 74.1406 110.526 75.152 112.196Z" fill="#FF0000" stroke="black"/>
<path d="M65.293 122.071L65.293 122.071L65.2974 122.07L65.974 121.998C66.7332 122.926 67.6428 123.967 68.7423 125.134C66.7468 126.122 64.2283 127.263 61.8847 127.997C60.5894 128.403 59.369 128.678 58.3314 128.741C57.2813 128.805 56.4987 128.648 56.0018 128.282C55.1742 127.664 54.4701 126.428 53.9582 124.776C53.4517 123.141 53.1571 121.176 53.0926 119.199C53.028 117.222 53.1944 115.257 53.595 113.622C54.0007 111.967 54.6251 110.739 55.4073 110.127L55.4106 110.124C55.6996 109.894 56.1206 109.738 56.6851 109.673C57.2473 109.608 57.9188 109.637 58.6731 109.748C60.0194 109.944 61.5743 110.389 63.1413 110.948C62.4539 112.217 62.1621 113.659 62.2735 115.147C62.2793 115.309 62.3006 115.525 62.3518 115.795C61.9092 116.175 61.7456 116.817 61.9733 117.392L61.9834 117.417L61.9961 117.441C62.0532 117.55 62.1574 117.725 62.2881 117.853C62.5572 118.115 62.9411 118.271 63.3336 118.247C63.5786 118.671 63.8755 119.144 64.2302 119.672C63.9121 119.952 63.7177 120.379 63.7826 120.875L63.7826 120.875L63.7833 120.88C63.8271 121.189 63.9458 121.465 64.1838 121.697C64.5018 122.007 64.9165 122.108 65.293 122.071Z" fill="#C7B9B9" stroke="black"/>
<path d="M95.5561 109.898L95.5561 109.899L95.5602 109.901C96.392 110.512 97.0987 111.745 97.6106 113.396C98.1168 115.028 98.4085 116.993 98.4672 118.97C98.526 120.946 98.351 122.911 97.939 124.543C97.522 126.195 96.8843 127.42 96.0865 128.028L96.0864 128.027L96.0765 128.035C95.6256 128.397 94.8698 128.567 93.8152 128.516C92.7773 128.467 91.5394 128.208 90.2162 127.818C87.8137 127.111 85.2019 125.994 83.1298 125.017C84.0328 123.994 84.8958 122.92 85.6833 121.858L86.4972 121.925C87.2307 121.993 87.9044 121.464 87.9564 120.686C87.9906 120.174 87.746 119.692 87.3421 119.42C87.6147 118.969 87.857 118.533 88.0735 118.106C88.671 118.19 89.3222 117.903 89.5433 117.235C89.7427 116.633 89.5337 115.907 88.96 115.564C88.9952 115.328 89.0098 115.097 89.0029 114.884C88.9562 113.419 88.5308 112.038 87.8163 110.822C89.3538 110.236 90.8854 109.765 92.2251 109.548C93.7623 109.3 94.9064 109.411 95.5561 109.898Z" fill="#C7B9B9" stroke="black"/>
</svg>
