<svg width="60" height="60" viewBox="0 0 60 60" fill="none" xmlns="http://www.w3.org/2000/svg">
<circle cx="30" cy="30" r="30" fill="white"/>
<path d="M39.2862 59.3205L39.2668 59.3006L39.2454 59.2829C38.9091 59.0061 38.7038 58.6379 38.7038 58.3448V53.7931C38.7038 50.8164 37.2571 48.0986 34.7926 46.4329C34.3559 46.1083 34.1645 45.6395 34.266 45.2215C34.378 44.7605 34.7718 44.4172 35.2052 44.3588C39.5724 43.9142 42.8861 40.1298 42.8861 35.5862V32.8552C42.8861 29.7035 41.1871 26.7191 38.5299 25.2197L38.5215 25.215L38.5129 25.2106C38.3366 25.1198 38.1619 24.9121 38.023 24.6354L36.9879 21.6039L36.5611 20.3539L36.0532 21.5733L35.3293 23.3112C35.1586 23.721 34.767 23.9965 34.3432 23.9965H25.6568C25.233 23.9965 24.8414 23.721 24.6707 23.3112L23.9468 21.5733L23.452 20.3851L23.015 21.5958L21.9788 24.4662C21.8397 24.7448 21.6642 24.9539 21.4871 25.045L21.4761 25.0507L21.4653 25.0569C18.7323 26.6388 17.1139 29.5376 17.1139 32.6897V35.4207C17.1139 39.9746 20.4368 43.6646 24.7904 44.1927C25.2256 44.2494 25.6216 44.5935 25.734 45.056C25.8523 45.5431 25.6633 46.0275 25.2672 46.2313L25.241 46.2448L25.2165 46.2613C22.7464 47.9264 21.2962 50.6472 21.2962 53.6276V58.1793C21.2962 58.6208 21.1198 58.9168 20.8436 59.0588L20.796 59.0834L20.7546 59.1174C20.4966 59.3298 20.1472 59.3755 19.8534 59.2244L19.8244 59.2095L19.7938 59.1984C8.26172 55.0534 0.5 43.5815 0.5 30.869C0.5 14.0833 13.7211 0.5 30 0.5C46.2789 0.5 59.5 14.0833 59.5 30.869C59.5 43.5534 51.7707 55.0108 40.1878 59.4231C40.0853 59.4338 39.996 59.457 39.9419 59.4711L39.9291 59.4744C39.9056 59.4804 39.8874 59.4851 39.872 59.4887C39.8593 59.4918 39.8485 59.4941 39.8383 59.4961C39.8173 59.5002 39.8105 59.5 39.8123 59.5C39.5714 59.5 39.4012 59.4389 39.2862 59.3205Z" fill="#FFA8EC" fill-opacity="0.35" stroke="black"/>
<path d="M39.2862 59.3205L39.2668 59.3006L39.2454 59.2829C38.9091 59.0061 38.7038 58.6379 38.7038 58.3448V53.7931C38.7038 50.8164 37.2571 48.0987 34.7926 46.4329C34.3559 46.1083 34.1645 45.6395 34.266 45.2215C34.378 44.7605 34.7718 44.4172 35.2052 44.3588C39.5724 43.9142 42.8861 40.1298 42.8861 35.5862V32.8552C42.8861 29.7035 41.1871 26.7191 38.5299 25.2197L38.5215 25.215L38.5129 25.2106C38.3366 25.1198 38.1619 24.9121 38.023 24.6354L36.9879 21.6039L36.5611 20.3539L36.0532 21.5733L35.3293 23.3112C35.1586 23.721 34.767 23.9966 34.3432 23.9966H25.6568C25.233 23.9966 24.8414 23.721 24.6707 23.3112L23.9468 21.5733L23.452 20.3851L23.015 21.5958L21.9788 24.4662C21.8397 24.7448 21.6642 24.9539 21.4871 25.045L21.4761 25.0507L21.4653 25.0569C18.7323 26.6388 17.1139 29.5376 17.1139 32.6897V35.4207C17.1139 39.9746 20.4368 43.6646 24.7904 44.1927C25.2256 44.2494 25.6216 44.5935 25.734 45.056C25.8523 45.5431 25.6633 46.0275 25.2672 46.2313L25.241 46.2448L25.2165 46.2613C22.7464 47.9264 21.2962 50.6472 21.2962 53.6276V58.1793C21.2962 58.6208 21.1198 58.9168 20.8436 59.0588L20.796 59.0834L20.7546 59.1174C20.4966 59.3298 20.1472 59.3755 19.8534 59.2244L19.8244 59.2095L19.7938 59.1984C8.26172 55.0534 0.5 43.5815 0.5 30.869C0.5 14.0833 13.7211 0.5 30 0.5C46.2789 0.5 59.5 14.0833 59.5 30.869C59.5 43.5535 51.7707 55.0108 40.1878 59.4231C40.0853 59.4338 39.996 59.457 39.9419 59.4711L39.9291 59.4744C39.9056 59.4804 39.8874 59.4851 39.872 59.4887C39.8593 59.4918 39.8485 59.4941 39.8383 59.4961C39.8204 59.4996 39.8129 59.5 39.8121 59.5C39.5713 59.5 39.4012 59.4388 39.2862 59.3205ZM18.4403 56.3114L19.1595 56.6623V55.8621V53.7931C19.1595 51.094 20.0852 48.5576 21.701 46.5783L22.1226 46.0618L21.5087 45.8017C17.5945 44.1432 14.8968 40.1885 14.8968 35.5862V32.8552C14.8968 29.0474 16.8256 25.4842 19.8951 23.5102L20.0361 23.4195L20.0939 23.2622L22.346 17.1381L22.3464 17.1367C22.5234 16.6511 22.9126 16.3897 23.3244 16.3897C23.7766 16.3897 24.2312 16.6916 24.3909 17.0749C24.3909 17.0749 24.391 17.075 24.391 17.075L26.2404 21.543L26.3682 21.8517H26.7024H33.2976H33.6318L33.7596 21.543L35.609 17.075C35.609 17.075 35.6091 17.0749 35.6091 17.0749C35.7688 16.6916 36.2234 16.3897 36.6756 16.3897C37.0874 16.3897 37.4765 16.6511 37.6535 17.1367L37.654 17.1381L39.9061 23.2622L39.9633 23.4178L40.1021 23.5084C43.2529 25.5643 45.1032 29.0452 45.1032 32.9379V35.669C45.1032 40.2712 42.4055 44.226 38.4913 45.8844L37.8774 46.1445L38.299 46.661C39.9148 48.6403 40.8405 51.1768 40.8405 53.8759V55.9448V56.7515L41.5629 56.3926C51.0633 51.6734 57.2828 41.734 57.2828 30.869C57.2828 15.3788 45.0884 2.81035 30 2.81035C14.9106 2.81035 2.71716 15.4625 2.71716 30.869C2.71716 41.7333 8.93637 51.6748 18.4403 56.3114Z" fill="#FFA8EC" stroke="black"/>
<path d="M29.4746 40.3571L29.9261 41.0983L30.3408 40.3359C30.9504 39.2152 32.1327 38.443 33.5322 38.4259C35.6214 38.4003 37.3706 40.0834 37.4399 42.1565C37.4445 42.3466 37.3886 42.6149 37.2481 42.9655C37.1095 43.3113 36.9016 43.7057 36.6358 44.1368C36.1042 44.999 35.3659 45.9686 34.564 46.9304C32.9686 48.844 31.1599 50.6815 30.3349 51.504C30.2894 51.5428 30.2427 51.5569 30.2076 51.5578C30.1745 51.5586 30.1433 51.5487 30.1129 51.5194L30.113 51.5194L30.1055 51.5125C29.2516 50.7232 27.3752 48.9655 25.69 47.1028C24.8468 46.1706 24.0608 45.2224 23.4763 44.3631C22.8769 43.4819 22.5447 42.7719 22.5061 42.2981C22.3526 40.2745 24.067 38.5418 26.1737 38.516C27.5429 38.4992 28.7872 39.2287 29.4746 40.3571Z" fill="#FF0000" stroke="black"/>
<path d="M22.5321 47.4366L22.5321 47.4366L22.5366 47.4361L22.9404 47.3907C23.4379 47.9898 24.0243 48.6539 24.7209 49.3897C23.3237 50.0741 21.6043 50.843 20.004 51.3476C19.0824 51.6381 18.2219 51.834 17.4968 51.8825C16.7588 51.9319 16.2437 51.823 15.9333 51.5982C15.385 51.196 14.9004 50.3663 14.5456 49.2136C14.1963 48.0789 13.9965 46.7085 13.9599 45.3255C13.9232 43.9423 14.0504 42.5697 14.3401 41.4309C14.6349 40.2722 15.0764 39.4405 15.6008 39.0339L15.604 39.0314C15.7847 38.8889 16.0582 38.7831 16.4457 38.7365C16.831 38.6902 17.297 38.7064 17.8275 38.7794C18.7277 38.9034 19.764 39.1835 20.8185 39.5414C20.367 40.4246 20.1738 41.4125 20.2436 42.4279C20.2469 42.5328 20.2586 42.6653 20.285 42.8253C19.9683 43.1374 19.8562 43.6221 20.0292 44.059L20.0393 44.0845L20.0521 44.1087C20.0944 44.1886 20.177 44.3295 20.2875 44.4359C20.4865 44.6274 20.7623 44.7469 21.0514 44.7529C21.2008 45.0059 21.3753 45.282 21.5771 45.5836C21.3708 45.807 21.251 46.1161 21.2956 46.47L21.2956 46.47L21.2963 46.4755C21.3299 46.7201 21.426 46.947 21.6233 47.1369C21.8872 47.391 22.2295 47.4679 22.5321 47.4366Z" fill="#C7B9B9" stroke="black"/>
<path d="M44.0939 38.6846L44.0939 38.6846L44.0981 38.6876C44.6487 39.0852 45.1351 39.9117 45.4899 41.0635C45.839 42.1965 46.0367 43.5663 46.0692 44.949C46.1018 46.3318 45.9685 47.7038 45.6708 48.8409C45.3681 49.9976 44.9176 50.8266 44.3827 51.2303L44.3826 51.2301L44.3728 51.2379C44.0887 51.4637 43.5906 51.5875 42.85 51.5573C42.1256 51.5278 41.2555 51.3545 40.3179 51.0876C38.6858 50.623 36.9157 49.894 35.4752 49.2378C36.0628 48.5734 36.6254 47.8819 37.1441 47.197L37.6467 47.2344C38.2454 47.2849 38.7997 46.8551 38.8465 46.2248C38.8734 45.861 38.7236 45.5146 38.4616 45.2868C38.6151 45.0334 38.7552 44.7859 38.8834 44.5425C39.3398 44.5639 39.8153 44.3272 39.9883 43.8201C40.1418 43.3703 40.0094 42.8218 39.599 42.5251C39.6169 42.3838 39.6244 42.2454 39.621 42.1147C39.5953 41.116 39.3221 40.172 38.8569 39.3337C39.9002 38.9426 40.9289 38.6303 41.8293 38.4809C42.9242 38.2991 43.6856 38.3834 44.0939 38.6846Z" fill="#C7B9B9" stroke="black"/>
</svg>
