<svg width="120" height="120" viewBox="0 0 120 120" fill="none" xmlns="http://www.w3.org/2000/svg">
<circle cx="60" cy="60" r="59.5" fill="#FFA8EC" stroke="black"/>
<path d="M113.5 59.5C113.5 89.8887 89.5344 114.5 60 114.5C30.4656 114.5 6.5 89.8887 6.5 59.5C6.5 29.1113 30.4656 4.5 60 4.5C89.5344 4.5 113.5 29.1113 113.5 59.5Z" fill="#FFE1F8" stroke="black"/>
<path d="M42.1357 116.896L42.1011 116.886L42.0654 116.881C41.3018 116.78 40.8157 116.763 40.4911 116.802C40.3248 116.821 40.1788 116.858 40.0516 116.92C39.9571 116.966 39.8862 117.02 39.8315 117.073C39.8093 117.068 39.7835 117.063 39.7537 117.056C39.6315 117.027 39.4596 116.978 39.2155 116.9C38.3568 116.628 37.809 115.998 37.495 114.801C37.1727 113.572 37.1209 111.821 37.2416 109.446L37.2423 109.434V109.421V105.362C37.2423 99.9626 39.178 94.8816 42.5659 90.9116L43.016 90.3841L42.3734 90.1237C34.143 86.7878 28.5 78.8486 28.5 69.6423V64.2843C28.5 56.6658 32.5326 49.5201 38.9836 45.5514L39.1277 45.4628L39.1883 45.3049L43.8069 33.2901L43.8074 33.2887C44.2322 32.1736 45.2077 31.5 46.3093 31.5C47.4502 31.5 48.5769 32.2117 48.9846 33.1474C48.9847 33.1476 48.9848 33.1478 48.9848 33.1479L52.7782 41.9145L52.9086 42.2159H53.2371H66.7629H67.0913L67.2217 41.9145L71.0151 33.1479C71.0152 33.1477 71.0153 33.1475 71.0154 33.1473C71.4231 32.2116 72.5498 31.5 73.6907 31.5C74.7923 31.5 75.7677 32.1737 76.1925 33.2887L76.1931 33.2901L80.8116 45.3049L80.8717 45.4611L81.0136 45.5497C87.6302 49.6798 91.5 56.6635 91.5 64.4467V69.8046C91.5 79.0109 85.857 86.9502 77.6266 90.286L76.984 90.5465L77.4341 91.074C80.822 95.044 82.7577 100.125 82.7577 105.524V109.574C82.7112 110.759 82.7145 111.774 82.7255 112.636C82.7281 112.844 82.7312 113.042 82.7341 113.231C82.7433 113.832 82.7511 114.337 82.7394 114.771C82.724 115.345 82.6745 115.73 82.5781 115.993C82.4923 116.227 82.3761 116.351 82.1921 116.435C81.7849 116.619 81.1927 116.665 80.5886 116.648C80.2961 116.639 80.019 116.617 79.7821 116.595C79.7474 116.592 79.7126 116.589 79.6779 116.586C79.494 116.569 79.3162 116.553 79.2 116.553C78.9241 116.553 78.6917 116.61 78.4044 116.698C78.2936 116.731 78.1796 116.768 78.0504 116.809C77.8225 116.882 77.5472 116.971 77.1583 117.085C75.977 117.435 73.8927 117.983 69.9034 118.769C66.0368 119.53 61.6192 119.547 56.819 119.469C52.0922 119.19 47.5207 118.415 45.7358 117.911L42.1357 116.896ZM39.7242 117.195C39.7239 117.196 39.724 117.195 39.7245 117.195L39.7242 117.195Z" fill="white" stroke="black"/>
<path d="M78.6607 116.855L78.641 116.836L78.6193 116.819C77.8588 116.217 77.3248 115.369 77.3248 114.603V105.64C77.3248 99.9267 74.4329 94.7222 69.5175 91.5365C68.4874 90.8057 67.9723 89.698 68.2373 88.6508C68.5141 87.5568 69.4914 86.7216 70.6119 86.5806C79.2745 85.738 85.9021 78.5188 85.9021 69.7867V64.4087C85.9021 58.3593 82.5034 52.6491 77.2279 49.7908L77.2196 49.7863L77.2111 49.7821C76.6984 49.5288 76.2721 48.9994 75.9653 48.4025L73.8319 42.4033L73.4069 41.2081L72.9021 42.3719L71.4176 45.7942C70.9985 46.7602 70.019 47.4488 68.9072 47.4488H51.0928C49.9809 47.4488 49.0014 46.7602 48.5824 45.7942L47.0979 42.3719L46.606 41.238L46.1711 42.3949L44.0366 48.0727C43.7297 48.6711 43.3027 49.2023 42.7888 49.4562L42.778 49.4615L42.7674 49.4674C37.3314 52.4885 34.0979 58.0331 34.0979 64.0828V69.4608C34.0979 78.2023 40.7342 85.2477 49.3833 86.2541C50.5058 86.3933 51.4855 87.2294 51.7627 88.3249C52.045 89.4406 51.6143 90.6463 50.5414 91.1763L50.5155 91.1891L50.4912 91.2049C45.5705 94.3901 42.6752 99.5974 42.6752 105.314V114.277C42.6752 114.427 42.6788 114.571 42.6824 114.705L42.6833 114.74C42.6866 114.863 42.6896 114.976 42.6902 115.086C42.6916 115.327 42.681 115.528 42.6429 115.714C42.573 116.055 42.3991 116.405 41.8755 116.819C41.7826 116.892 41.7012 116.958 41.6281 117.017C41.3309 117.258 41.1709 117.388 40.9274 117.456C40.6445 117.536 40.1876 117.533 39.216 117.223C38.3577 116.95 37.8095 116.317 37.4951 115.115C37.1726 113.881 37.1209 112.123 37.2416 109.74L37.2423 109.727V109.714V105.64C37.2423 100.219 39.1784 95.1187 42.5665 91.1336L43.0142 90.6071L42.374 90.3466C34.1441 86.9985 28.5 79.0293 28.5 69.7867V64.4087C28.5 56.7602 32.5334 49.5872 38.9843 45.6038L39.1281 45.515L39.1886 45.3572L43.8071 33.2974L43.8076 33.296C44.2329 32.1755 45.2088 31.5 46.3093 31.5C47.4491 31.5 48.576 32.2137 48.9843 33.1539C48.9844 33.1541 48.9845 33.1544 48.9846 33.1546L52.7779 41.9539L52.9082 42.256H53.2371H66.7629H67.0918L67.222 41.9539L71.0154 33.1546C71.0154 33.1545 71.0154 33.1545 71.0155 33.1544C71.4235 32.2139 72.5507 31.5 73.6907 31.5C74.7911 31.5 75.767 32.1755 76.1923 33.296L76.1929 33.2974L80.8114 45.3572L80.8712 45.5133L81.0129 45.602C87.6294 49.7475 91.5 56.7579 91.5 64.5717V69.9497C91.5 79.1923 85.8559 87.1615 77.626 90.5096L76.9858 90.77L77.4335 91.2966C80.8216 95.2817 82.7577 100.382 82.7577 105.803V109.867C82.7112 111.057 82.7145 112.076 82.7255 112.941C82.7281 113.15 82.7312 113.349 82.7341 113.538C82.7433 114.142 82.7511 114.649 82.7394 115.084C82.724 115.661 82.6745 116.047 82.5779 116.312C82.4918 116.548 82.3752 116.672 82.1914 116.756C81.1892 117.212 80.4089 117.363 80.1237 117.363C79.5395 117.363 79.0285 117.219 78.6607 116.855Z" fill="#FFA8EC" stroke="black"/>
<path d="M78.6607 116.855L78.641 116.836L78.6193 116.819C77.8588 116.217 77.3248 115.369 77.3248 114.603V105.64C77.3248 99.9267 74.4329 94.7222 69.5175 91.5365C68.4874 90.8057 67.9723 89.698 68.2373 88.6508C68.5141 87.5568 69.4914 86.7216 70.6119 86.5806C79.2745 85.738 85.9021 78.5188 85.9021 69.7867V64.4087C85.9021 58.3593 82.5034 52.6491 77.2279 49.7908L77.2196 49.7863L77.2111 49.7821C76.6984 49.5288 76.2721 48.9994 75.9653 48.4025L73.8319 42.4033L73.4069 41.2081L72.9021 42.3719L71.4176 45.7942C70.9985 46.7602 70.019 47.4488 68.9072 47.4488H51.0928C49.9809 47.4488 49.0014 46.7602 48.5824 45.7942L47.0979 42.3719L46.606 41.238L46.1711 42.3949L44.0366 48.0727C43.7297 48.6711 43.3027 49.2023 42.7888 49.4562L42.778 49.4615L42.7674 49.4674C37.3314 52.4885 34.0979 58.0331 34.0979 64.0828V69.4608C34.0979 78.2023 40.7342 85.2477 49.3833 86.2541C50.5058 86.3933 51.4855 87.2294 51.7627 88.3249C52.045 89.4406 51.6143 90.6463 50.5414 91.1763L50.5155 91.1891L50.4912 91.2049C45.5705 94.3901 42.6752 99.5974 42.6752 105.314V114.277C42.6752 114.427 42.6788 114.571 42.6824 114.705L42.6833 114.74C42.6866 114.863 42.6896 114.976 42.6902 115.086C42.6916 115.327 42.681 115.528 42.6429 115.714C42.573 116.055 42.3991 116.405 41.8755 116.819C41.7826 116.892 41.7012 116.958 41.6281 117.017C41.3309 117.258 41.1709 117.388 40.9274 117.456C40.6445 117.536 40.1876 117.533 39.216 117.223C38.3577 116.95 37.8095 116.317 37.4951 115.115C37.1726 113.881 37.1209 112.123 37.2416 109.74L37.2423 109.727V109.714V105.64C37.2423 100.219 39.1784 95.1187 42.5665 91.1336L43.0142 90.6071L42.374 90.3466C34.1441 86.9985 28.5 79.0293 28.5 69.7867V64.4087C28.5 56.7602 32.5334 49.5872 38.9843 45.6038L39.1281 45.515L39.1886 45.3572L43.8071 33.2974L43.8076 33.296C44.2329 32.1755 45.2088 31.5 46.3093 31.5C47.4491 31.5 48.576 32.2137 48.9843 33.1539C48.9844 33.1541 48.9845 33.1544 48.9846 33.1546L52.7779 41.9539L52.9082 42.256H53.2371H66.7629H67.0918L67.222 41.9539L71.0154 33.1546C71.0154 33.1545 71.0154 33.1545 71.0155 33.1544C71.4235 32.2139 72.5507 31.5 73.6907 31.5C74.7911 31.5 75.767 32.1755 76.1923 33.296L76.1929 33.2974L80.8114 45.3572L80.8712 45.5133L81.0129 45.602C87.6294 49.7475 91.5 56.7579 91.5 64.5717V69.9497C91.5 79.1923 85.8559 87.1615 77.626 90.5096L76.9858 90.77L77.4335 91.2966C80.8216 95.2817 82.7577 100.382 82.7577 105.803V109.867C82.7112 111.057 82.7145 112.076 82.7255 112.941C82.7281 113.15 82.7312 113.349 82.7341 113.538C82.7433 114.142 82.7511 114.649 82.7394 115.084C82.724 115.661 82.6745 116.047 82.5779 116.312C82.4918 116.548 82.3752 116.672 82.1914 116.756C81.1892 117.212 80.4089 117.363 80.1237 117.363C79.5395 117.363 79.0285 117.219 78.6607 116.855Z" fill="#FFA8EC" stroke="black"/>
<path d="M59.2414 88.6313L59.6925 89.3762L60.1018 88.6074C60.7751 87.3429 62.0918 86.4759 63.6596 86.4668C66.0026 86.4534 67.978 88.3797 68.071 90.7353C68.0778 90.9589 68.0151 91.2667 67.8612 91.6612C67.7091 92.0509 67.4806 92.4937 67.1891 92.9758C66.6059 93.9403 65.795 95.0226 64.9147 96.0946C63.1624 98.2285 61.1736 100.275 60.2677 101.19C60.2097 101.24 60.1468 101.261 60.0944 101.262C60.0432 101.263 59.9921 101.246 59.9449 101.2L59.945 101.2L59.9377 101.193C58.9875 100.303 56.8981 98.3187 55.0193 96.2179C54.0792 95.1668 53.2009 94.0965 52.546 93.1263C51.8761 92.134 51.495 91.3244 51.4474 90.7765C51.2602 88.4753 53.1681 86.5271 55.5239 86.5136C57.0589 86.5048 58.4612 87.3428 59.2414 88.6313Z" fill="#FF0000" stroke="black"/>
<path d="M51.5572 96.477L51.5572 96.4771L51.5617 96.4766L52.0401 96.4252C52.6108 97.121 53.2874 97.8956 54.0959 98.7578C52.544 99.522 50.6185 100.387 48.8254 100.949C47.8067 101.268 46.8522 101.482 46.0447 101.532C45.2249 101.582 44.6368 101.457 44.2737 101.189C43.6474 100.722 43.1002 99.7727 42.6983 98.4754C42.3019 97.1957 42.0704 95.654 42.0197 94.1009C41.969 92.5475 42.0999 91.0062 42.4134 89.7273C42.7319 88.428 43.2174 87.4871 43.8066 87.026L43.8099 87.0234C44.0176 86.8579 44.3291 86.7392 44.7633 86.6892C45.1953 86.6395 45.7158 86.6616 46.306 86.7477C47.3269 86.8967 48.5043 87.2292 49.6986 87.65C49.1878 88.6429 48.9731 89.7604 49.0589 90.9114C49.0633 91.0322 49.0782 91.1877 49.1116 91.3777C48.7626 91.7109 48.6409 92.2419 48.8293 92.7171L48.8394 92.7425L48.8521 92.7666C48.8986 92.8548 48.9871 93.0057 49.1023 93.1181C49.3195 93.33 49.6242 93.4616 49.9416 93.4609C50.1182 93.7635 50.3272 94.0963 50.5715 94.4628C50.3369 94.7038 50.1994 95.0468 50.251 95.4414L50.251 95.4415L50.2518 95.4469C50.2891 95.7101 50.3918 95.9507 50.5989 96.1528C50.8759 96.423 51.2354 96.5086 51.5572 96.477Z" fill="#C7B9B9" stroke="black"/>
<path d="M75.3768 86.8471L75.3768 86.8471L75.3809 86.8501C76.0101 87.3123 76.5593 88.2584 76.9612 89.5547C77.3574 90.8326 77.5866 92.3738 77.6327 93.9265C77.6789 95.4794 77.5412 97.02 77.2189 98.2971C76.8916 99.5941 76.3959 100.532 75.7949 100.99L75.7948 100.99L75.7849 100.997C75.4589 101.259 74.8939 101.394 74.0695 101.355C73.2617 101.316 72.2933 101.114 71.2524 100.807C69.4119 100.265 67.4128 99.4169 65.8006 98.6618C66.4684 97.8991 67.1071 97.1026 67.6936 96.314L68.2782 96.362C68.9119 96.4204 69.4984 95.9624 69.5435 95.2857C69.5707 94.8788 69.3943 94.4932 69.0937 94.2506C69.2765 93.9448 69.4418 93.6469 69.5918 93.3542C70.0845 93.3934 70.6069 93.1446 70.7912 92.588C70.9554 92.0921 70.7984 91.493 70.3445 91.1816C70.3662 91.0134 70.3749 90.8487 70.37 90.6941C70.3339 89.5631 70.0161 88.4938 69.4815 87.5463C70.6524 87.1058 71.8111 86.7543 72.8258 86.5903C74.0356 86.3947 74.9005 86.4898 75.3768 86.8471Z" fill="#C7B9B9" stroke="black"/>
</svg>
